<svg xmlns="http://www.w3.org/2000/svg" width="645.785" height="133.611" viewBox="0 0 645.785 133.611">
  <g id="cpx_logo" transform="translate(0 0.2)">
    <path id="Path_136" data-name="Path 136" d="M0-.2H645.784V133.411H0Z" transform="translate(0 0)" fill="#003da6"/>
    <path id="Path_137" data-name="Path 137" d="M601.3,76.566l-25.781,45.116h11.09L606.6,85.836l20.022,35.846H637.7L611.928,76.566l23.6-42.075H624.417L606.6,67.321l-17.776-32.83H577.7ZM524.165,42.011a35.821,35.821,0,0,1,35.719,36.081c0,19.647-15.944,36.069-35.719,36.069S488.44,97.733,488.44,78.093a35.839,35.839,0,0,1,35.725-36.081m0-9.016a45.47,45.47,0,0,0-45.447,45.211c0,25.093,20.576,44.989,45.447,44.989s45.459-19.908,45.459-44.989A45.469,45.469,0,0,0,524.184,33M428.436,83.405h2.4L457.2,121.694H469.13l-27.753-39.1c13.418-1.152,21.836-10.632,21.836-24.05,0-19.653-15.378-24.037-31.927-24.037H418.714v87.165h9.715V83.405Zm0-39.886h2.857c11.707,0,22.2,1.387,22.2,15.722,0,13.533-11.083,15.62-22.065,15.62h-3Zm-62.212,0h3.582c11.331,0,22.784,1.05,22.784,15.27,0,12.483-9.13,15.722-19.9,15.722h-6.471Zm0,40.007h7.056c7.291,0,14.793-.929,20.671-5.771,5.465-4.517,8.341-11.688,8.341-18.744,0-7.756-3.378-15.378-9.843-19.9-6.362-4.39-14.105-4.613-21.632-4.613H356.484v87.165h9.734V83.494Zm-47.54,4.4H289.2l14.92-34.9Zm3.817,9.022L332.8,121.694h10.759L304.35,30.33,264.108,121.7h10.644l10.517-24.743H322.5ZM216.364,83.405h2.411l26.366,38.289h11.91l-27.74-39.1c13.406-1.152,21.842-10.632,21.842-24.05,0-19.653-15.378-24.037-31.907-24.037h-12.61v87.165h9.722V83.405Zm0-39.886h2.889c11.675,0,22.2,1.387,22.2,15.722,0,13.533-11.1,15.62-22.09,15.62h-3Zm-83.5-9.016h-9.715V89.08c0,9.944.929,17.923,8.564,25.2a32.552,32.552,0,0,0,22.536,8.907,32.086,32.086,0,0,0,23.452-9.938c6.935-7.17,7.635-14.7,7.635-24.177V34.5h-9.7V86.415c0,6.827.356,14.449-4.276,20a23.021,23.021,0,0,1-17.115,7.743c-6.362,0-13.762-3-17.567-8.328-4.046-5.542-3.817-12.935-3.817-19.418Zm-25.9,7.069A42.062,42.062,0,0,0,80.94,33.009,45.593,45.593,0,0,0,35.5,78.43c0,24.756,20.811,44.753,45.44,44.753a44.785,44.785,0,0,0,26.022-8.557V102.594c-6.941,6.935-16.542,11.56-26.359,11.56-19.539,0-35.381-16.879-35.381-36.068S60.95,42.005,80.355,42.005a37.322,37.322,0,0,1,26.589,11.554Z" transform="translate(-12.913 -11.106)" fill="#fff"/>
  </g>
</svg>
