<svg xmlns="http://www.w3.org/2000/svg" width="1887.891" height="1291.361" viewBox="0 0 1887.891 1291.361">
  <g id="Group_161862" data-name="Group 161862" transform="translate(89.694 -3561.64)">
    <g id="Group_161861" data-name="Group 161861" transform="translate(-36.887)">
      <g id="Group_161860" data-name="Group 161860" transform="translate(2297.167 3633.936)">
        <path id="Path_1581" data-name="Path 1581" d="M-2202.081,259.883c15.114,20.121,29.657,40.723,47.468,58.631,8.023,8.066,16.584,15.594,24.961,23.3,10.387,9.56,19.461,20.364,29.164,30.572,10.169,10.7,18.172,22.916,25.447,35.676a25.956,25.956,0,0,1,3.625,16.767,4,4,0,0,0-.648,2.941l-4.32,5.593c-4.723,4.309-10.248,3.971-15.926,2.762-3.647-1.543-7.322-3.026-10.922-4.676-1.016-.467-1.771-1.1-2.216.453-1.71,5.992-6.852,8.084-11.859,10.059-10.444,4.113-20.909,2.716-31.363-.3-17.645-5.094-33.959-13.021-49.439-22.78A40.671,40.671,0,0,0-2201.9,417c-18.856-12.276-34.282-28.462-50.062-44.2a96.416,96.416,0,0,1-20.328-29.239c4.88-3.575,9.186-7.628,11.135-13.595a90.091,90.091,0,0,0,4.573-24.156c.413-9.446-.994-18.667-2.88-27.856,4.33-5.143,9.66-9.111,15.106-12.964,5.254-3.714,9.985-7.813,12.044-14.35,1.027-3.258,3.551-4.088,7.286-4.242C-2214.214,245.968-2208.664,253.624-2202.081,259.883Z" transform="translate(-509.812 -621.625) rotate(-39)" fill="#703180"/>
        <path id="Path_1556" data-name="Path 1556" d="M-2082.117,540.351c8.437,6.972,17.667,12.857,26.525,19.251,14.065,10.155,29.032,19,42.859,29.5,2.356,1.786,4.491,3.867,6.73,5.814-1.565.039-3.134.114-4.7.114q-113.279.005-226.555.057a12.18,12.18,0,0,1-8.091-2.869c-28.133-22.074-44.833-50.65-49.213-86.216a65.949,65.949,0,0,1,.77-21.682,15.876,15.876,0,0,1,6.462-10.212c1.889-1.312,2.092-2.545,1.048-4.6-15.174-29.977-24.135-61.921-29.56-94.91-3.718-22.581-3.832-45.35-2.406-68.141,1.144-18.36,3.646-36.51,8.911-54.19,2.484-8.341,5.585-16.439,10.8-23.539,6.862-9.353,16.665-11.766,27.531-11.346a9.826,9.826,0,0,1,6.737,3.372c1.34,1.451,2.876,2.955,3.582,4.73,9.892,24.872,23.233,48.515,26.619,75.712,1.967,15.8,4.37,31.552,6.8,47.289a426.7,426.7,0,0,0,13.031,57.783c8.494,28.277,24.295,51.966,46.281,71.467C-2141.358,501.324-2110.833,519.613-2082.117,540.351Z" transform="translate(25.836 440.481)" fill="#80acdc"/>
        <path id="Path_1557" data-name="Path 1557" d="M-2202.081,259.883c15.114,20.121,29.657,40.723,47.468,58.631,8.023,8.066,16.584,15.594,24.961,23.3,10.387,9.56,19.461,20.364,29.164,30.572,10.169,10.7,18.172,22.916,25.447,35.676a25.956,25.956,0,0,1,3.625,16.767,4,4,0,0,0-.648,2.941l-4.32,5.593c-4.723,4.309-10.248,3.971-15.926,2.762-3.647-1.543-7.322-3.026-10.922-4.676-1.016-.467-1.771-1.1-2.216.453-1.71,5.992-6.852,8.084-11.859,10.059-10.444,4.113-20.909,2.716-31.363-.3-17.645-5.094-33.959-13.021-49.439-22.78A40.671,40.671,0,0,0-2201.9,417c-18.856-12.276-34.282-28.462-50.062-44.2a96.416,96.416,0,0,1-20.328-29.239c4.88-3.575,9.186-7.628,11.135-13.595a90.091,90.091,0,0,0,4.573-24.156c.413-9.446-.994-18.667-2.88-27.856,4.33-5.143,9.66-9.111,15.106-12.964,5.254-3.714,9.985-7.813,12.044-14.35,1.027-3.258,3.551-4.088,7.286-4.242C-2214.214,245.968-2208.664,253.624-2202.081,259.883Z" transform="translate(70.185 450.388)" fill="#0d66ae"/>
        <path id="Path_1558" data-name="Path 1558" d="M-2136.309,186.3c-5.853.592-11.157,3.194-16.8,4.612-6.088,1.529-12.3,1.914-18.428,3.015-2.614.467-3.8-1.23-3.986-3.789-.367-5,1.9-9.071,4.474-13.024,4.078-6.259,8.473-12.226,10.558-19.683,1.747-6.263,1.43-12.486.756-18.581-.805-7.3,1.408-13.374,5.137-19.155,10.2-15.822,25.845-22.784,43.486-26.58,4.027-.866,8.2-.31,12.144-1.9,6.11-2.467,10.548-7.2,15.48-11.174a92.514,92.514,0,0,1,39.081-18.956,45.222,45.222,0,0,1,19,.057c10.223,2.189,16.757,13.488,14.565,24.124-2,9.7-7.318,17.779-12.244,26.1-2.331,3.939-5.375,7.3-8.062,10.946a19.168,19.168,0,0,0-4.573,2.83,64.605,64.605,0,0,1-25.529,13.071c-4.537,1.1-9.043,2.353-13.555,3.554-9.011,2.4-15.587,7.567-19.5,16.243a32.094,32.094,0,0,1-15.082,16.133c-7.232,3.632-14.457,7.179-22.177,9.677C-2133.236,184.351-2135.289,184.412-2136.309,186.3Z" transform="translate(1513.913 -80.59)" fill="#ffec00"/>
        <path id="Path_1559" data-name="Path 1559" d="M-2181.979,221.486a167.556,167.556,0,0,0-11.153,30.779c-5.154,19.779-11.232,39.276-17.5,58.706-14.189,43.974-58.416,46.637-84.255,34.443-7.054-3.329-10.771-8.858-11.37-16.692-.606-7.924,2.367-13.812,9.214-17.786,1.968,1.729,4.063.389,6.106.246,20.3-1.429,35.793-12.083,47.66-27.364,13.98-18.011,23.885-38.5,31.338-60.135,6.619-19.209,13.962-38.146,26.37-54.557,7.332-9.7,13.812-20.306,25.468-25.767-.128,5.806-2.466,11-5.025,15.969a29.562,29.562,0,0,0-3.151,17.64c-7.968,4.391-11.763,11.877-14.668,19.961C-2185.927,205.218-2184.292,213.377-2181.979,221.486Z" transform="translate(58.55 250.782)" fill="#0d66ae"/>
        <path id="Path_1560" data-name="Path 1560" d="M-2214.6,307.737c1.886,9.189,3.293,18.41,2.88,27.856a90.091,90.091,0,0,1-4.573,24.156c-1.949,5.967-6.255,10.02-11.135,13.595-4.388,1.586-8.412,4.11-13.238,4.555-10.245.941-17.458-3.1-22.531-11.987-11.246-19.686-16.717-41.294-21.272-63.169-2.663-12.775-5.867-25.539-5.223-38.8a57.326,57.326,0,0,1,2.956-16.311c3.8-10.807,14.59-15.577,25.208-11.314,7.959,3.194,13.766,8.972,18.792,15.651,11.848,15.737,19.347,33.723,26.662,51.8C-2215.553,305.082-2215.093,306.418-2214.6,307.737Z" transform="translate(101.004 485.211)" fill="#fff"/>
        <path id="Path_1561" data-name="Path 1561" d="M-2270.99,384.122a6.279,6.279,0,0,1-2.549-3.279c-11.406-25.97-10.133-51.645,1.811-77.045a122.174,122.174,0,0,1,13.22-21.351c10.833-14.393,16.447-30.579,17.708-48.508.806-11.467,2.068-22.923,6.576-33.727,4.791-11.467,12.419-20.246,23.689-25.746,18.186-8.875,37.705-.132,43.209,19.369.495,1.761,1.165,3.475,1.757,5.215-9.15,2.923-12.629,10.693-16.314,18.546-9.571,20.4-20,40.239-36.845,55.926a230.167,230.167,0,0,0-23.326,24.912,145.622,145.622,0,0,0-27.987,56.475C-2272.433,364.618-2271.81,374.349-2270.99,384.122Z" transform="translate(106.757 321.658)" fill="#703180"/>
        <path id="Path_1562" data-name="Path 1562" d="M-2277.971,363.938c-.82-9.774-1.444-19.5.948-29.214a145.621,145.621,0,0,1,27.987-56.475,230.163,230.163,0,0,1,23.326-24.912c16.848-15.687,27.274-35.53,36.845-55.926,3.685-7.852,7.164-15.623,16.314-18.546,5.941.556,12.543,6.327,14.083,12.949,2.273,9.8,4.188,19.7,2.035,29.809-2.484,11.677-6.216,22.876-12.839,32.96-2.438,3.718-5.878,6.5-8.744,9.809-3.828,1.814-6.1,5.45-9.321,7.995-9.62,7.581-20.3,13.555-30.522,20.2-21.536,14-32.642,34.8-39.486,58.574-3.579,5.945-6.569,12.3-12.7,16.321C-2275.348,370.963-2276.916,370.347-2277.971,363.938Z" transform="translate(113.738 341.842)" fill="#fff"/>
        <path id="Path_1563" data-name="Path 1563" d="M-2267.43,249.244a29.563,29.563,0,0,1,3.151-17.64c2.559-4.969,4.9-10.162,5.028-15.965.714-6.943.214-13.894.086-20.845,1.643-12.689,5.835-24.149,15.5-33.135a41.563,41.563,0,0,1,15.858-9.624,21.212,21.212,0,0,0,11.563-8.694c6.155-8.883,13.085-17.049,22.409-22.9,3.65-2.3,7.707-3.54,11.578-5.265,9.406.449,13.416,3.6,15.084,12.711a30.2,30.2,0,0,1-.217,12.251,137.661,137.661,0,0,1-10.275,29.567c-.688,1.511-2.228,1.682-3.525,2.124-12.319,4.174-23.379,10.212-31.774,20.513-7.7,9.446-14.193,19.259-12.354,32.3a103.672,103.672,0,0,1-30.119,20.952C-2259.207,247.383-2262.957,249.608-2267.43,249.244Z" transform="translate(157.699 178.504)" fill="#ffec00"/>
        <path id="Path_1564" data-name="Path 1564" d="M-2166.7,137.51c.128,6.951.628,13.9-.086,20.845-11.659,5.457-18.139,16.065-25.471,25.764-12.407,16.411-19.75,35.348-26.37,54.557-7.453,21.64-17.358,42.124-31.338,60.135-11.867,15.281-27.361,25.935-47.66,27.364-2.043.143-4.138,1.483-6.106-.246.55-1.95,2.188-2.909,3.678-3.978,3.354-2.4,6.658-4.89,10.124-7.122,22.406-14.447,33.8-35.769,38.581-61.294,3.029-16.193,5.146-32.6,9.552-48.48,9.61-34.635,31.934-56.845,66.787-66.2A79.38,79.38,0,0,1-2166.7,137.51Z" transform="translate(65.234 235.788)" fill="#703180"/>
        <path id="Path_1565" data-name="Path 1565" d="M-2164.548,141.773c1.02-1.886,3.073-1.946,4.745-2.488,7.72-2.5,14.945-6.045,22.177-9.677a32.094,32.094,0,0,0,15.082-16.133c3.913-8.676,10.489-13.844,19.5-16.243,4.512-1.2,9.018-2.449,13.555-3.554a64.607,64.607,0,0,0,25.529-13.071,19.163,19.163,0,0,1,4.573-2.83c13.527-1.454,25.531,2.092,36.292,10.479,4.887,3.81,6.556,11.378,4.263,16.938-2.559,6.2-6.459,11.31-12.518,14.539-10.754,5.728-20.863,12.618-32.087,17.53-2.513,1.1-4.773,2.62-7.586,2.089-8.355-1.579-16.428.927-24.541,1.893A293.253,293.253,0,0,1-2164.548,141.773Z" transform="translate(1542.152 -36.066)" fill="#0d66ae"/>
        <path id="Path_1566" data-name="Path 1566" d="M-2214.448,213.614a39.982,39.982,0,0,1-10.79-2.377c-2.056-.681-3.357-.438-4.677,1.372a14.035,14.035,0,0,1-6.548,5.286,4.9,4.9,0,0,1-4.851-.806c-1.568-1.262-.225-2.627.385-3.793,1.657-3.158,1.782-6.5,1.646-9.955-.588-14.792,4.915-24.117,18.589-29.645a26.478,26.478,0,0,0,13.352-11.641,46.775,46.775,0,0,1,49.136-21.518c6.83,1.319,12.051,5.414,16.77,10.358,4.313,4.516.478,8.344-.9,12.233a11.774,11.774,0,0,1-5.158,6.067c-7.4,4.324-14.86,8.091-23.51,9.952a21.046,21.046,0,0,0-16.322,14.693C-2191.02,205.4-2203.346,214.074-2214.448,213.614Z" transform="translate(307.537 299.64)" fill="#f39e1f"/>
        <path id="Path_1567" data-name="Path 1567" d="M-2255.89,183.9c4.473.364,8.222-1.861,11.99-3.654a103.675,103.675,0,0,0,30.119-20.952c2.363,1.643,3.733-.417,5.019-1.625,3.515-3.3,6.719-6.922,10.209-10.251a23.626,23.626,0,0,1,17.75-6.755c2.641,4.124,2.688,10.087-1.244,13.68-10.355,9.46-17.005,20.98-21.949,33.955-3.276,8.6-9.827,13.787-19.643,14.817-7.992.834-14.191,5.628-19.034,11.916-2.335,3.03-4.3,6.352-6.334,9.6a31.954,31.954,0,0,1-4.583,6.131c-6.177,6.006-12.03,5.154-16-2.342-2.313-8.109-3.949-16.268-.969-24.559C-2267.653,195.781-2263.858,188.3-2255.89,183.9Z" transform="translate(146.161 243.844)" fill="#fff"/>
        <path id="Path_1568" data-name="Path 1568" d="M-2139.547,117.553c-.481,7.571-.852,13.83-2.231,19.957-4.616,20.5-22.047,35.8-44.259,38.916-6.652.934-13.313,1.579-19.95-.014a19.566,19.566,0,0,1-9.667-5.154c-2.434-2.47-3.536-5.143-1.54-8.419.432-.7,1.145-1.422.684-2.324-3.478-6.8.874-11.125,5.154-15.088a36.561,36.561,0,0,1,24.4-9.916c8-.225,14.393-2.691,19.64-9.228,4.053-5.047,9.463-9.014,14.358-13.359,2.028-1.8,4.188-3.408,5.607-5.8.8-1.355,1.675-2.52,3.728-2.071s2.035,1.96,2.581,3.415C-2139.761,111.853-2139.1,115.268-2139.547,117.553Z" transform="translate(48.393 182.136)" fill="#f39e1f"/>
        <path id="Path_1569" data-name="Path 1569" d="M-2272.712,289.633c6.844-23.778,17.95-44.573,39.486-58.574,10.223-6.648,20.9-12.622,30.522-20.2,3.226-2.545,5.493-6.181,9.321-8,8.176,4.505,12.29,16.393,9.018,26.038a33.967,33.967,0,0,1-8.17,12.828,76.847,76.847,0,0,1-18.15,14.069c-19.448,10.579-38.057,22.68-58.146,32.094C-2270.117,288.493-2271.419,289.052-2272.712,289.633Z" transform="translate(129.107 403.376)" fill="#0d66ae"/>
        <path id="Path_1570" data-name="Path 1570" d="M-2222.586,184.692a23.626,23.626,0,0,0-17.75,6.755c-3.49,3.329-6.694,6.954-10.209,10.251-1.286,1.208-2.655,3.269-5.018,1.625-1.839-13.042,4.659-22.855,12.354-32.3,8.394-10.3,19.455-16.339,31.774-20.513,1.3-.442,2.836-.613,3.525-2.124a6.134,6.134,0,0,0,5.895-1.533c6.285-5.9,13.6-10.611,19.613-16.824a20.6,20.6,0,0,1,14.261-6.544c.56.1,1.112.214,1.675.278,9.848,1.076,14.047,9.332,9,17.89a48.224,48.224,0,0,1-20.763,18.995,80.914,80.914,0,0,0-18.257,11.638C-2204.008,178.939-2212.473,183.527-2222.586,184.692Z" transform="translate(187.943 199.82)" fill="#0d66ae"/>
        <path id="Path_1583" data-name="Path 1583" d="M-2222.586,184.692a23.626,23.626,0,0,0-17.75,6.755c-3.49,3.329-6.694,6.954-10.209,10.251-1.286,1.208-2.655,3.269-5.018,1.625-1.839-13.042,4.659-22.855,12.354-32.3,8.394-10.3,19.455-16.339,31.774-20.513,1.3-.442,2.836-.613,3.525-2.124a6.134,6.134,0,0,0,5.895-1.533c6.285-5.9,13.6-10.611,19.613-16.824a20.6,20.6,0,0,1,14.261-6.544c.56.1,1.112.214,1.675.278,9.848,1.076,14.047,9.332,9,17.89a48.224,48.224,0,0,1-20.763,18.995,80.914,80.914,0,0,0-18.257,11.638C-2204.008,178.939-2212.473,183.527-2222.586,184.692Z" transform="translate(364.943 304.236)" fill="#0d66ae"/>
        <path id="Path_1571" data-name="Path 1571" d="M-2292.122,173.094c-.278-7.136,2.17-10.932,5.125-14.482a60.793,60.793,0,0,1,21.055-16.379c9.015-4.224,16.71-10.169,24.042-16.746a108.064,108.064,0,0,1,9.285-7.489,19.45,19.45,0,0,1,13.335-3.472c8.316.7,12.464,6.266,10.614,14.429a23.1,23.1,0,0,1-5.76,10.786c-7.517,8.052-15.765,15.184-25.692,20.178a106.737,106.737,0,0,0-25.664,18.171,31.787,31.787,0,0,1-5.34,4.22c-4.826,2.923-9.984,4.456-15.326,1.5C-2291.51,181.022-2291.93,175.918-2292.122,173.094Z" transform="translate(94.942 176.636)" fill="#ffec00"/>
        <path id="Path_1573" data-name="Path 1573" d="M-2199.35,161.683a20.6,20.6,0,0,0-14.261,6.544c-6.017,6.213-13.328,10.921-19.612,16.824a6.135,6.135,0,0,1-5.895,1.533,137.633,137.633,0,0,0,10.275-29.567,30.186,30.186,0,0,0,.218-12.251c-1.668-9.111-5.677-12.262-15.084-12.711,5.738-4.352,11.1-9.31,18.542-10.814,2.788-.563,4.452-2.909,6.27-4.915,5.073-5.589,11.135-8.622,18.927-7.51,8.342,1.191,13.088,5.9,13.592,14.318a35.046,35.046,0,0,1-3.715,18.948C-2193.462,148.463-2195.489,155.51-2199.35,161.683Z" transform="translate(219.15 161.62)" fill="#fff"/>
        <path id="Path_1575" data-name="Path 1575" d="M-2319.675,215.094c-.025-12.953,5.7-23.931,12.237-34.5,3.268-5.282,13.494-6.238,18.118-2.3,1.379,1.176,1.4,2.723,1.265,4.306a49.172,49.172,0,0,1-3.493,13.584c-3.122,8.084-6.362,16.125-9.573,24.174a24.262,24.262,0,0,1-1.3,2.688c-2.281,4.088-5.8,5.9-9.835,5.1-4.131-.82-7-4.174-7.4-8.786C-2319.778,217.949-2319.675,216.516-2319.675,215.094Z" transform="translate(24.238 334.184)" fill="#f39e1f"/>
        <path id="Path_1577" data-name="Path 1577" d="M-2096.628,45.564c3.126.346,6.437.282,7.838,3.55,1.733,4.046,2.025,8.33-.606,12.212a14.82,14.82,0,0,1-7.2,5.789,57.284,57.284,0,0,0-20.567,13.331,23.015,23.015,0,0,1-2.933,2.463c-4.744,3.3-9.813,1.59-11.21-4.078-1.847-7.482-.531-14.5,4.876-20.207C-2118.353,50.1-2107.371,48.048-2096.628,45.564Z" transform="translate(1625.372 -117.86)" fill="#f39e1f"/>
        <path id="Path_1578" data-name="Path 1578" d="M-2196.225,88.772c3.343-.3,6.042,2.527,8.048,5.5,1.747,2.591-.214,5.336-1.743,7.728-7.268,11.374-20.028,14.233-31.238,7-2.983-1.928-3.6-4.434-1.154-6.594,6.451-5.7,14.2-9.392,21.753-13.331C-2199.644,88.593-2198.324,88.889-2196.225,88.772Z" transform="translate(238.515 137.663)" fill="#ffec00"/>
        <path id="Path_1579" data-name="Path 1579" d="M-2242.757,228.764c5.022,2.028,7.6,6.166,9.168,11.007,1.672,5.147-1.544,9.987-8.519,13.224-.481.225-.937.5-1.4.752-7.011.5-12.864-5.19-12.871-12.511C-2256.395,233.131-2251.094,228.276-2242.757,228.764Z" transform="translate(187.646 501.716)" fill="#ffec00"/>
      </g>
      <path id="Path_1580" data-name="Path 1580" d="M316.2,4669s60.692,37.047,89.824,90.456-129.881,63.119-169.937,9.1-69.189-6.069-106.211-37.022-36.2-49.138-57.078-68.753S316.2,4669,316.2,4669Z" fill="#80acdc"/>
    </g>
    <path id="Path_1582" data-name="Path 1582" d="M-1501.157,1522.054a163.9,163.9,0,0,0-25.96-21.437c-12.787-8.726-26.458-16.073-39.043-25.124a263.013,263.013,0,0,1-23.067-18.844c-12.084-10.961-19.729-24.892-26.5-39.33-3.814-8.134-2.778-16.4,1.356-24.455,8.649-16.847,29.153-23.411,44.162-20.454,18.667,3.678,32.712,14.089,44.066,28.792a220.194,220.194,0,0,1,15.734,24.243c7.207,12.4,16.161,23.072,27.829,31.676a88.271,88.271,0,0,1,31.5,42.785c6.732,19.377,17.7,36.439,28.307,53.733,11.216,18.289,23.05,36.225,31.809,55.92a20.557,20.557,0,0,1,1.841,11.462c-.619,4.582-2.977,7.477-7.109,5.79-8.336-3.4-17.434-2.956-25.632-5.946-11.5-4.2-22.615-9.434-33.873-14.279a25.905,25.905,0,0,1-5.415-2.848c-15.165-11.441-32.6-18.77-49.4-27.219a47.053,47.053,0,0,1-21.312-21.258c-4.837-9.445-2.362-23.372,5.832-30.127,5.408-4.458,12.17-4.4,18.811-3.912C-1505.63,1521.337-1504.057,1521.648-1501.157,1522.054Z" transform="translate(-660.777 6683.197) rotate(155)" fill="#ffec00"/>
  </g>
</svg>
