<svg id="Group_161847" data-name="Group 161847" xmlns="http://www.w3.org/2000/svg" xmlns:xlink="http://www.w3.org/1999/xlink" width="1174.005" height="443.107" viewBox="0 0 1174.005 443.107">
  <defs>
    <clipPath id="clip-path">
      <rect id="Rectangle_1158" data-name="Rectangle 1158" width="1174.005" height="443.107" fill="none"/>
    </clipPath>
  </defs>
  <g id="Group_161831" data-name="Group 161831" clip-path="url(#clip-path)">
    <path id="Path_1433" data-name="Path 1433" d="M1172.058,164.5S950.353-35.41,480.673,7.549C256.046,28.1,148.554,169.321,81.194,262.316c-50.6,69.853-79.249,178.9-79.249,178.9H1172.058Z" transform="translate(0.252 0.194)" fill="#fff"/>
    <path id="Path_1434" data-name="Path 1434" d="M1172.058,164.5S950.353-35.41,480.673,7.549C256.046,28.1,148.554,169.321,81.194,262.316c-50.6,69.853-79.249,178.9-79.249,178.9H1172.058Z" transform="translate(0.252 0.194)" fill="none" stroke="#003da6" stroke-miterlimit="10" stroke-width="3"/>
    <path id="Path_1435" data-name="Path 1435" d="M489.406,294.752h1.056v-4.517a5.789,5.789,0,0,1,.5-2.928,3.277,3.277,0,0,1,2.907-1.419,4.522,4.522,0,0,1,1.367.241v1.947a3.825,3.825,0,0,0-1.3-.264c-1.56,0-1.56,1.1-1.56,3.1v3.842h2.856v1.778h-2.856v9.531h-1.921V296.53h-1.056Z" transform="translate(63.355 37.009)"/>
    <path id="Path_1436" data-name="Path 1436" d="M495.892,293.736h1.921v6.315c0,1.9.217,3.531,2.546,3.531s2.546-1.633,2.546-3.531v-6.315h1.921v6.532c0,3-1.129,5.088-4.467,5.088s-4.467-2.088-4.467-5.088Z" transform="translate(64.195 38.025)"/>
    <path id="Path_1437" data-name="Path 1437" d="M507.786,301.814c.481,1.058,1.032,1.8,2.305,1.8a1.717,1.717,0,0,0,1.824-1.73c0-2.522-5.092-1.681-5.092-5.235a3.217,3.217,0,0,1,3.365-3.194,3.4,3.4,0,0,1,3,2.091l-1.607.839a1.8,1.8,0,0,0-1.536-1.153,1.368,1.368,0,0,0-1.394,1.25c0,1.032,1.3,1.416,2.619,1.968s2.616,1.37,2.616,3.268a3.693,3.693,0,0,1-3.819,3.672,4.061,4.061,0,0,1-3.986-2.856Z" transform="translate(65.514 37.989)"/>
    <path id="Path_1438" data-name="Path 1438" d="M516.272,301.814c.481,1.058,1.036,1.8,2.305,1.8a1.718,1.718,0,0,0,1.828-1.73c0-2.522-5.089-1.681-5.089-5.235a3.216,3.216,0,0,1,3.361-3.194,3.406,3.406,0,0,1,3,2.091l-1.611.839a1.8,1.8,0,0,0-1.536-1.153,1.367,1.367,0,0,0-1.39,1.25c0,1.032,1.3,1.416,2.616,1.968s2.616,1.37,2.616,3.268a3.691,3.691,0,0,1-3.819,3.672,4.054,4.054,0,0,1-3.982-2.856Z" transform="translate(66.613 37.989)"/>
    <path id="Path_1439" data-name="Path 1439" d="M524.912,301.643a1.341,1.341,0,0,1,1.346,1.323,1.346,1.346,0,1,1-2.693,0,1.339,1.339,0,0,1,1.346-1.323" transform="translate(67.777 39.049)"/>
    <path id="Path_1440" data-name="Path 1440" d="M529.565,286.166h1.923v10.157h.047A4.846,4.846,0,0,1,535.4,294.4c3.361,0,5.426,2.763,5.426,5.957,0,3.167-2.088,5.977-5.4,5.977a4.747,4.747,0,0,1-3.889-1.871h-.047v1.561h-1.923Zm5.525,18.4c2.472,0,3.769-1.995,3.769-4.3a3.773,3.773,0,0,0-3.793-4.083,3.828,3.828,0,0,0-3.677,4.059c0,2.233,1.3,4.324,3.7,4.324" transform="translate(68.554 37.045)"/>
    <path id="Path_1441" data-name="Path 1441" d="M552.232,304.53c0,1.8,0,3.384-1.156,4.874a5.459,5.459,0,0,1-4.37,1.992,5.186,5.186,0,0,1-5.546-5.209h1.921a3.371,3.371,0,0,0,3.6,3.431c2.976,0,3.624-2.208,3.624-4.754V303.52h-.046a5,5,0,0,1-3.914,1.871c-3.29,0-5.378-2.76-5.378-5.907,0-3.194,2.112-6.027,5.45-6.027a4.71,4.71,0,0,1,3.842,1.921h.046v-1.607h1.925Zm-5.6-.913c2.472,0,3.769-1.995,3.769-4.3a3.773,3.773,0,0,0-3.793-4.083,3.828,3.828,0,0,0-3.678,4.059c0,2.233,1.3,4.324,3.7,4.324" transform="translate(70.03 37.989)"/>
    <path id="Path_1442" data-name="Path 1442" d="M449.674,293.721a36.767,36.767,0,0,1-2.929,10.337,29.826,29.826,0,0,1-2.675-4.043,1.139,1.139,0,0,0-1.945,0,16.333,16.333,0,0,0-1.233,2.208,39.622,39.622,0,0,1-1.72-8.169c-.143-1.429-2.4-1.443-2.252,0a42.231,42.231,0,0,0,2.88,11.763,1.137,1.137,0,0,0,2.172,0,14.344,14.344,0,0,1,1.171-3.016,32.586,32.586,0,0,0,3.064,4.207,1.134,1.134,0,0,0,1.77-.227,40.278,40.278,0,0,0,3.949-13.06c.183-1.434-2.071-1.421-2.252,0" transform="translate(56.56 37.884)"/>
    <path id="Path_1443" data-name="Path 1443" d="M463.094,293.448c-.6,2.616-1.253,5.218-1.987,7.8a14.683,14.683,0,0,1-.5,1.718c-.326.767.025.724-.57.567-.611-.162-1.914-2.689-2.332-3.277a1.139,1.139,0,0,0-1.945,0l-.779,1.642a26.192,26.192,0,0,1-.987-5.843.93.93,0,0,0-.037-1.056l-.169-.253a1.136,1.136,0,0,0-2.1.568,28.282,28.282,0,0,0,2.033,9.869c.321.8,1.6,1.24,2.059.27q.542-1.144,1.085-2.288c1.211,1.952,2.934,4.3,4.739,2.789,1.185-1,1.407-3.149,1.8-4.538.686-2.441,1.3-4.9,1.866-7.37.323-1.411-1.848-2.014-2.172-.6" transform="translate(58.472 37.883)"/>
    <path id="Path_1444" data-name="Path 1444" d="M478.067,291.4a51.19,51.19,0,0,1-3.258,11.916q-1.028-2.109-2.058-4.22a1.135,1.135,0,0,0-1.945,0l-1.838,3.308a73.518,73.518,0,0,1-2.026-8.375c-.25-1.425-2.42-.821-2.173.6a73.518,73.518,0,0,0,2.8,10.967,1.141,1.141,0,0,0,2.059.269l2.092-3.766q1.1,2.25,2.195,4.5a1.133,1.133,0,0,0,1.945,0,52.819,52.819,0,0,0,4.385-14.6c.209-1.417-1.962-2.03-2.172-.6" transform="translate(60.163 37.617)"/>
    <path id="Path_1445" data-name="Path 1445" d="M481.483,302.881a1.345,1.345,0,0,0-.761-1,1.178,1.178,0,0,0-1.365.176l-.137.107a.892.892,0,0,0-.384.776c-.385.71-.1,1.75.893,1.631a2.422,2.422,0,0,0,1.465-.6,1.122,1.122,0,0,0,.289-1.1" transform="translate(61.965 39.061)"/>
    <path id="Path_1446" data-name="Path 1446" d="M460.968,265.006a1.139,1.139,0,0,0-1.085.827c-1.87,7.673-8.882,2.3-10.537-1-1.393-2.777-.232-3.277,2.185-4.328a1.139,1.139,0,0,0,.558-.972c.3-2.71-.874-7.782-3.876-8.881-3.111-1.138-7.349,2.183-9.287,4.187a1.132,1.132,0,0,0,.549,1.869c1.628,11.219,11.658,24.5,24.411,22.257,3.33-.585,8.239-4,7.684-8.009-.655-4.729-6.93-5.826-10.6-5.948M458.1,276.17a20.722,20.722,0,0,1-7.048-3.347c-5.74-4.073-8.865-10.419-9.49-17.344,2.706-2.231,7.568-4.658,8.137,1,.26,2.585.3,1.4-2.049,3.1-1.728,1.25-1.63,1.1-1.738,2.9-.229,3.784,6.4,9.359,9.655,10.118,1.887.44,3.069-.141,4.371-1.532.674-.721,1.046-2.262,1.66-2.75a4.907,4.907,0,0,1,6.628,1.308c4.325,6.529-7.25,7.219-10.126,6.544" transform="translate(56.779 32.417)"/>
    <path id="Path_1447" data-name="Path 1447" d="M454.936,256.991a4.491,4.491,0,0,1,3.693,4.014c.116,1.434,2.37,1.447,2.252,0a6.759,6.759,0,0,0-5.347-6.186c-1.415-.289-2.021,1.882-.6,2.172" transform="translate(58.788 32.984)"/>
    <path id="Path_1448" data-name="Path 1448" d="M455.834,253.969a8.012,8.012,0,0,1,6.944,8.538c-.067,1.449,2.187,1.446,2.253,0a10.271,10.271,0,0,0-9.2-10.79c-1.433-.187-1.42,2.067,0,2.252" transform="translate(58.871 32.584)"/>
    <path id="Path_1449" data-name="Path 1449" d="M557.9,264.065c-.208-.125-.472-.265-.773-.419,1.91-1.042,3.847-2.551,3.767-4.933s-2.158-4.324-4.353-4.915c-4.119-1.11-9.361,2.5-7.181,7a7.132,7.132,0,0,0,2.41,2.7c-3.3,1.786-6.494,4.436-5.226,8.448,1.465,4.632,8.559,6.1,12.181,3.451,4.277-3.132,3.418-8.758-.826-11.334m-5.814-6.995a4.2,4.2,0,0,1,4.7-.524,2.4,2.4,0,0,1,1.019,3.643,7.291,7.291,0,0,1-2.641,1.694l-.77.34c-2.3-1.323-4.353-3.086-2.31-5.153m4.741,16.631c-2.847,1.578-9.033-.4-7.739-4.387.747-2.3,2.957-3.463,5.139-4.387.4.206.809.407,1.2.61,1.579.81,3.344,1.779,3.661,3.7a4.519,4.519,0,0,1-2.265,4.467" transform="translate(70.715 32.829)"/>
    <path id="Path_1450" data-name="Path 1450" d="M574.046,264.065c-.208-.125-.472-.265-.773-.419,1.91-1.042,3.847-2.551,3.767-4.933s-2.158-4.324-4.353-4.915c-4.119-1.11-9.361,2.5-7.181,7a7.133,7.133,0,0,0,2.41,2.7c-3.3,1.786-6.494,4.436-5.226,8.448,1.465,4.632,8.559,6.1,12.181,3.451,4.277-3.132,3.418-8.758-.826-11.334m-5.814-6.995a4.2,4.2,0,0,1,4.7-.524,2.4,2.4,0,0,1,1.019,3.643,7.292,7.292,0,0,1-2.641,1.694l-.77.34c-2.3-1.323-4.353-3.086-2.31-5.153m4.741,16.631c-2.847,1.578-9.033-.4-7.739-4.387.747-2.3,2.957-3.463,5.139-4.387.4.206.809.407,1.2.61,1.579.81,3.344,1.779,3.661,3.7a4.519,4.519,0,0,1-2.265,4.467" transform="translate(72.805 32.829)"/>
    <path id="Path_1451" data-name="Path 1451" d="M506.135,262.087a5.134,5.134,0,0,0,1.853-4.563c-.731-4.73-6.275-3.8-9.09-1.855-1.3.9-.067,3.042,1.248,2.135,1.064-.734,2.4-1.684,3.793-1.376,1.739.387,1.765,2.362.7,3.542a8.74,8.74,0,0,1-2.352,1.809,8.793,8.793,0,0,0-3.585,1.355,1.242,1.242,0,0,0,.952,2.259,16.784,16.784,0,0,0,3.72-1.4,4.222,4.222,0,0,1,2.569.635,3.946,3.946,0,0,1,1.6,4.809c-1.157,3.016-5.915,4.992-8.969,4.743-1.586-.13-1.578,2.342,0,2.472,4.91.4,12.082-3.467,11.742-9.055a5.905,5.905,0,0,0-4.188-5.511" transform="translate(64.389 32.892)"/>
    <path id="Path_1452" data-name="Path 1452" d="M688.578,265.229l-2.251.987q-.876-2.787-1.753-5.575c-.478-1.518-2.774-.6-2.3.91q.89,2.831,1.78,5.661l-4.147,1.82a44.466,44.466,0,0,0-.264-13.437c-.272-1.562-2.731-1.3-2.459.267a42.7,42.7,0,0,1-.062,15.017,1.247,1.247,0,0,0,1.677,1.337l6-2.633,1.565,4.978c.477,1.519,2.774.6,2.3-.909l-1.593-5.064,2.416-1.059c1.454-.637.55-2.939-.91-2.3" transform="translate(87.653 32.952)"/>
    <path id="Path_1453" data-name="Path 1453" d="M513.773,262.222q-.015-1.652.081-3.3a33.3,33.3,0,0,0,7.622-2.285,1.256,1.256,0,0,0,.939-.289l.6-.491c1.153-.94-.316-2.51-1.5-1.942a31.016,31.016,0,0,1-7.47,2.469c.063-1.485-2.309-1.447-2.472.089a49.681,49.681,0,0,0-.247,7.17,1.2,1.2,0,0,0,.018.131c-.36.975.657,2.251,1.737,1.534,1.774-1.18,4.04-1.869,5.994-.642a3.946,3.946,0,0,1,1.6,4.809c-1.158,3.016-5.916,4.992-8.97,4.743-1.586-.13-1.577,2.342,0,2.472,4.91.4,12.083-3.467,11.743-9.055-.316-5.185-5.5-6.857-9.679-5.413" transform="translate(66.089 32.855)"/>
    <path id="Path_1454" data-name="Path 1454" d="M609.735,262.087a5.135,5.135,0,0,0,1.854-4.563c-.731-4.73-6.275-3.8-9.09-1.855-1.3.9-.067,3.042,1.248,2.135,1.064-.734,2.4-1.684,3.793-1.376,1.739.387,1.765,2.362.7,3.542a8.752,8.752,0,0,1-2.35,1.809,8.791,8.791,0,0,0-3.586,1.355,1.242,1.242,0,0,0,.952,2.259,16.785,16.785,0,0,0,3.72-1.4,4.222,4.222,0,0,1,2.569.635,3.946,3.946,0,0,1,1.6,4.809c-1.157,3.016-5.915,4.992-8.969,4.743-1.586-.13-1.578,2.342,0,2.472,4.91.4,12.083-3.467,11.742-9.055a5.905,5.905,0,0,0-4.188-5.511" transform="translate(77.801 32.892)"/>
    <path id="Path_1455" data-name="Path 1455" d="M618.024,262.222q-.015-1.652.081-3.3a33.294,33.294,0,0,0,7.622-2.285,1.256,1.256,0,0,0,.939-.289l.6-.491c1.153-.94-.316-2.51-1.5-1.942a31.017,31.017,0,0,1-7.47,2.469c.063-1.485-2.309-1.447-2.472.089a49.69,49.69,0,0,0-.247,7.17,1.235,1.235,0,0,0,.018.131c-.36.975.657,2.251,1.737,1.534,1.774-1.18,4.04-1.869,5.994-.642a3.946,3.946,0,0,1,1.6,4.809c-1.158,3.016-5.916,4.992-8.97,4.743-1.586-.13-1.577,2.342,0,2.472,4.91.4,12.083-3.467,11.743-9.055-.316-5.185-5.5-6.857-9.679-5.413" transform="translate(79.585 32.855)"/>
    <path id="Path_1456" data-name="Path 1456" d="M582.343,262.1q-.015-1.652.081-3.3a33.3,33.3,0,0,0,7.622-2.285,1.256,1.256,0,0,0,.939-.289l.6-.491c1.153-.94-.316-2.51-1.5-1.942a31.015,31.015,0,0,1-7.47,2.469c.063-1.485-2.309-1.447-2.472.089a49.663,49.663,0,0,0-.247,7.17,1.2,1.2,0,0,0,.018.131c-.36.975.657,2.251,1.737,1.534,1.775-1.18,4.04-1.869,5.994-.642a3.946,3.946,0,0,1,1.6,4.809c-1.158,3.016-5.916,4.992-8.97,4.743-1.586-.13-1.577,2.342,0,2.472,4.91.4,12.083-3.467,11.743-9.055-.316-5.185-5.505-6.857-9.679-5.413" transform="translate(74.966 32.839)"/>
    <path id="Path_1457" data-name="Path 1457" d="M529.4,254.005c-4.943,1.607-7.828,8.477-3.151,12.119,4.065,3.166,7.666.255,9.65-3.43a11.385,11.385,0,0,1-1.868,5.908,21.517,21.517,0,0,1-6.363,5.774,1.237,1.237,0,0,0,1.247,2.136c4.612-2.728,8.257-6.771,9.182-12.119.943-5.452-2.093-12.537-8.7-10.388m2.942,9.775a3.41,3.41,0,0,1-5.748-1.223c-1.657-4.534,5.352-9.091,8.21-4.641.055.086.1.178.151.268a1.12,1.12,0,0,0-.043.132,12.6,12.6,0,0,1-2.571,5.464" transform="translate(67.818 32.831)"/>
    <path id="Path_1458" data-name="Path 1458" d="M674.819,254.241l-11.392.438c-1.586.061-1.594,2.533,0,2.472l9.156-.352a57.764,57.764,0,0,0-4.065,8.639l-2.122.2c-1.57.15-1.586,2.624,0,2.472l1.239-.117a57.7,57.7,0,0,0-1.753,6.939c-.29,1.555,2.092,2.222,2.384.657a56.114,56.114,0,0,1,2.062-7.853l3.316-.316c1.57-.149,1.586-2.624,0-2.472l-2.37.226a55.73,55.73,0,0,1,4.61-9.075,1.245,1.245,0,0,0-1.067-1.86" transform="translate(85.729 32.912)"/>
    <path id="Path_1459" data-name="Path 1459" d="M641.121,273.243l-8.765.936c1.509-2.62,3.04-5.236,4.441-7.912,1.42-2.707,2.519-5.846,1.356-8.859a5.083,5.083,0,0,0-5.313-3.452c-2.747.4-3.625,3.186-4.239,5.5a1.237,1.237,0,0,0,2.383.657c.214-.8.41-2.32,1.041-2.906,1.489-1.379,3.254-.52,3.888,1.216.76,2.082-.134,4.4-1.072,6.248-1.787,3.526-3.88,6.922-5.823,10.363-.421.745.1,1.964,1.067,1.86l11.035-1.179c1.565-.167,1.582-2.642,0-2.472" transform="translate(81.368 32.869)"/>
    <path id="Path_1460" data-name="Path 1460" d="M661.523,273.243l-8.765.936c1.509-2.62,3.041-5.236,4.441-7.912,1.42-2.707,2.519-5.846,1.356-8.859a5.083,5.083,0,0,0-5.312-3.452c-2.748.4-3.627,3.186-4.24,5.5a1.237,1.237,0,0,0,2.383.657c.213-.8.41-2.32,1.041-2.906,1.489-1.379,3.254-.52,3.888,1.216.76,2.082-.134,4.4-1.072,6.248-1.787,3.526-3.88,6.922-5.823,10.363-.421.745.1,1.964,1.067,1.86l11.035-1.179c1.565-.167,1.582-2.642,0-2.472" transform="translate(84.01 32.869)"/>
    <path id="Path_1461" data-name="Path 1461" d="M495,263.807a44.964,44.964,0,0,1-6.727.532q.122-2.8.462-5.6c.193-1.576-2.28-1.562-2.472,0q-.341,2.773-.46,5.548-1.657-.078-3.315-.267c-1.578-.182-1.565,2.292,0,2.472q1.628.186,3.246.26-.025,2.672.145,5.354c.1,1.58,2.576,1.591,2.472,0q-.173-2.662-.145-5.311a50.128,50.128,0,0,0,7.451-.608c1.568-.245.9-2.628-.657-2.384" transform="translate(62.307 33.343)"/>
    <line id="Line_14" data-name="Line 14" y1="3.449" x2="1.926" transform="translate(887.509 381.442)"/>
    <path id="Path_1462" data-name="Path 1462" d="M512.868,173.054l-4.2,5.868c-.229.32.3.625.526.307l4.2-5.867c.229-.319-.3-.623-.526-.307" transform="translate(65.841 22.385)"/>
    <path id="Path_1463" data-name="Path 1463" d="M513.521,173.933a23.183,23.183,0,0,0-3.842,5.769c-.165.354.36.663.526.307a22.652,22.652,0,0,1,3.747-5.645c.263-.29-.167-.723-.431-.431" transform="translate(65.975 22.504)"/>
    <path id="Path_1464" data-name="Path 1464" d="M513.876,174.76l-3.247,4.88c-.218.328.311.632.526.307q1.625-2.44,3.247-4.88c.218-.328-.31-.633-.526-.307" transform="translate(66.096 22.605)"/>
    <path id="Path_1465" data-name="Path 1465" d="M515.5,174.144q-1.53,2.656-3.061,5.312a.3.3,0,0,0,.526.307q1.531-2.655,3.061-5.312a.3.3,0,0,0-.526-.307" transform="translate(66.332 22.524)"/>
    <path id="Path_1466" data-name="Path 1466" d="M516.492,174.18l-3.591,6.169a.305.305,0,0,0,.526.308l3.591-6.17a.3.3,0,0,0-.526-.307" transform="translate(66.391 22.529)"/>
    <path id="Path_1467" data-name="Path 1467" d="M516.837,175.636q-.664,1.13-1.329,2.259a.305.305,0,0,0,.526.308q.666-1.13,1.329-2.26a.3.3,0,0,0-.526-.307" transform="translate(66.729 22.718)"/>
    <path id="Path_1468" data-name="Path 1468" d="M496.794,165.2q.357,6.4.716,12.809.176,3.143.351,6.284c.058,1.024.072,2.064.186,3.085a3.413,3.413,0,0,0,.857,2.11c1.179,1.185,3.237,1.079,4.771,1.2q3.194.251,6.393.412,6.34.32,12.688.287,1.632-.007,3.263-.04a5.55,5.55,0,0,0,2.6-.3,2.619,2.619,0,0,0,1.008-1.937q.315-1.548.564-3.109a74.981,74.981,0,0,0,.937-12.164q-.015-3.1-.29-6.193a36.885,36.885,0,0,0-.776-5.829,3.034,3.034,0,0,0-1.155-1.824,5.176,5.176,0,0,0-2.414-.608c-2.11-.227-4.228-.381-6.348-.48-4.2-.2-8.417-.178-12.624-.084-2.125.047-4.249.114-6.374.182-1.511.047-3.456.164-3.981,1.894a1.887,1.887,0,0,0,.394,1.852c.51.578,1.354-.271.847-.847-.524-.593.3-1.314.813-1.493a8.7,8.7,0,0,1,2.528-.229c1.923-.061,3.848-.12,5.773-.163,3.768-.084,7.537-.107,11.3.029,1.92.07,3.84.182,5.755.349.89.078,1.79.14,2.673.276a1.746,1.746,0,0,1,1.633,1.377,30.891,30.891,0,0,1,.734,5.364q.246,2.68.3,5.374a73.567,73.567,0,0,1-.643,11.279,47.2,47.2,0,0,1-.931,5.325c-.1.387-.209.63-.628.716a7.712,7.712,0,0,1-1.333.042q-1.45.03-2.9.042-5.8.049-11.6-.2-2.778-.119-5.552-.3-1.447-.1-2.893-.212a17.5,17.5,0,0,1-2.514-.27,1.886,1.886,0,0,1-1.624-1.51,21.009,21.009,0,0,1-.225-3.156q-.176-3.143-.351-6.284-.366-6.526-.73-13.051c-.043-.766-1.24-.771-1.2,0" transform="translate(64.311 20.55)"/>
    <path id="Path_1469" data-name="Path 1469" d="M511.2,168.155a7.406,7.406,0,0,0-5.515,5.514,6.983,6.983,0,0,0,2.72,7.091,6.844,6.844,0,0,0,7.712.488,7.19,7.19,0,0,0,3.569-6.769A7.394,7.394,0,0,0,513.7,168.1c-.753-.12-1.079,1.033-.318,1.154a6.226,6.226,0,0,1,4.921,4.379,5.8,5.8,0,0,1-2.083,6.091,5.632,5.632,0,0,1-6.367.564,5.953,5.953,0,0,1-3.129-5.629,6.211,6.211,0,0,1,4.792-5.349c.752-.159.434-1.314-.318-1.154" transform="translate(65.44 21.76)"/>
    <path id="Path_1470" data-name="Path 1470" d="M518.946,166.881a.915.915,0,0,0-.664.1.952.952,0,0,0-.36.4,1.062,1.062,0,0,0-.115.535,1.041,1.041,0,0,0,.279.638,1.334,1.334,0,0,0,.963.385,1.676,1.676,0,0,0,.9-.259,1.628,1.628,0,0,0,.78-1.7,1.273,1.273,0,0,0-1.239-.936,1.335,1.335,0,0,0-.77.207,1.1,1.1,0,0,0-.5.887.6.6,0,0,0,.6.6.613.613,0,0,0,.6-.6l0-.049c-.007.053-.014.106-.021.159a.579.579,0,0,1,.032-.117c-.02.047-.041.095-.06.142a.575.575,0,0,1,.058-.1l-.093.121a.586.586,0,0,1,.091-.091c-.039.032-.08.063-.121.094a.7.7,0,0,1,.13-.075l-.143.061a.86.86,0,0,1,.211-.056l-.159.021a.954.954,0,0,1,.227,0l-.159-.021a.866.866,0,0,1,.218.059l-.143-.061a.733.733,0,0,1,.15.087l-.121-.093a.635.635,0,0,1,.1.1l-.094-.121a.645.645,0,0,1,.073.123l-.061-.142a.76.76,0,0,1,.051.186c-.007-.053-.014-.106-.021-.159a.815.815,0,0,1,0,.216c.008-.053.015-.106.021-.159a1.017,1.017,0,0,1-.065.23c.02-.047.039-.1.06-.143a1.17,1.17,0,0,1-.137.232l.094-.122a1.307,1.307,0,0,1-.227.227l.121-.094a1.259,1.259,0,0,1-.259.151l.143-.06a1.2,1.2,0,0,1-.264.075l.159-.021a1.071,1.071,0,0,1-.276,0l.159.021a.859.859,0,0,1-.219-.058l.142.06a.744.744,0,0,1-.133-.077c.041.03.081.062.121.094a.652.652,0,0,1-.094-.093l.094.121a.444.444,0,0,1-.054-.089c.019.049.04.1.06.143a.417.417,0,0,1-.026-.09c.007.053.014.106.021.159a.482.482,0,0,1,0-.114c-.007.053-.015.106-.021.159a.581.581,0,0,1,.034-.13c-.02.047-.039.1-.06.143a.5.5,0,0,1,.055-.1c-.032.041-.062.081-.094.121a.444.444,0,0,1,.077-.076l-.122.094a.4.4,0,0,1,.061-.035l-.143.06a.411.411,0,0,1,.067-.019l-.159.021a.386.386,0,0,1,.072,0l-.159-.021.018,0a.65.65,0,0,0,.462-.061.6.6,0,0,0,.215-.819.582.582,0,0,0-.358-.274" transform="translate(67.031 21.495)"/>
    <path id="Path_1471" data-name="Path 1471" d="M502.083,165.409c.284,6.418.629,12.833.913,19.252a.618.618,0,0,0,.6.6,94.308,94.308,0,0,0,13.819.592q1.745-.054,3.487-.174a3.894,3.894,0,0,0,2.414-.707,3.427,3.427,0,0,0,.84-2.319q.2-1.631.37-3.265c.206-2.024.354-4.054.422-6.087q.051-1.537.05-3.073a19.171,19.171,0,0,0-.111-2.915,3.187,3.187,0,0,0-1.04-2.053,4.167,4.167,0,0,0-2.607-.63l-6.942-.233-7.915-.265c-1.355-.045-4.25-.262-4.185,1.838.025.769,1.221.773,1.2,0-.018-.556.867-.655,1.283-.68.923-.056,1.876.045,2.8.076l6.211.208,6.089.2a10.468,10.468,0,0,1,2.914.2,1.885,1.885,0,0,1,1.052,1.754,37.554,37.554,0,0,1,.014,5.359c-.055,1.782-.171,3.562-.335,5.338q-.125,1.366-.285,2.727-.08.691-.165,1.382a3.721,3.721,0,0,1-.265,1.293c-.4.756-1.684.648-2.407.693q-1.5.093-3.005.139a94.243,94.243,0,0,1-13.7-.6c.2.2.4.4.6.6-.284-6.419-.628-12.834-.911-19.252-.034-.767-1.231-.771-1.2,0" transform="translate(64.996 21.243)"/>
    <path id="Path_1472" data-name="Path 1472" d="M560.355,176.055l-2.195,4.59c-.168.352.357.662.526.308l2.195-4.591c.168-.351-.357-.662-.526-.307" transform="translate(72.251 22.771)"/>
    <path id="Path_1473" data-name="Path 1473" d="M560.348,177.493a13.121,13.121,0,0,0-1.977,4.32.305.305,0,0,0,.588.163,12.639,12.639,0,0,1,1.913-4.176c.226-.322-.3-.627-.525-.307" transform="translate(72.282 22.959)"/>
    <path id="Path_1474" data-name="Path 1474" d="M561.664,177.26a15.315,15.315,0,0,0-2.763,5.872c-.088.382.5.546.587.163a14.917,14.917,0,0,1,2.7-5.727c.238-.311-.29-.614-.526-.307" transform="translate(72.35 22.93)"/>
    <path id="Path_1475" data-name="Path 1475" d="M562.38,178.083a12.762,12.762,0,0,0-1.97,4.963c-.065.383.523.549.587.162a12.354,12.354,0,0,1,1.909-4.817c.218-.326-.309-.632-.526-.307" transform="translate(72.546 23.035)"/>
    <path id="Path_1476" data-name="Path 1476" d="M563.352,178.132a13.564,13.564,0,0,0-2.3,6.265c-.042.39.568.387.609,0a12.946,12.946,0,0,1,2.214-5.958c.223-.324-.3-.629-.526-.307" transform="translate(72.63 23.042)"/>
    <path id="Path_1477" data-name="Path 1477" d="M564.533,178.4a31.722,31.722,0,0,0-2.752,7.841c-.08.383.507.547.587.163a31.151,31.151,0,0,1,2.692-7.7c.176-.349-.349-.657-.526-.307" transform="translate(72.723 23.075)"/>
    <path id="Path_1478" data-name="Path 1478" d="M565.674,178.682a33.986,33.986,0,0,0-2.758,8.5c-.071.384.517.548.587.163a33.429,33.429,0,0,1,2.7-8.352c.168-.352-.357-.662-.526-.307" transform="translate(72.871 23.111)"/>
    <path id="Path_1479" data-name="Path 1479" d="M566.866,179.26a32.418,32.418,0,0,0-3.079,8.492c-.081.383.506.547.587.163a31.842,31.842,0,0,1,3.018-8.348c.183-.346-.342-.654-.526-.307" transform="translate(72.983 23.186)"/>
    <path id="Path_1480" data-name="Path 1480" d="M567.583,179.893l-2.3,7.47c-.116.375.472.536.587.162l2.3-7.47c.116-.375-.472-.535-.587-.161" transform="translate(73.176 23.26)"/>
    <path id="Path_1481" data-name="Path 1481" d="M572.707,183.339q-.976,2.6-1.951,5.2c-.138.368.452.526.588.161q.974-2.6,1.949-5.2c.139-.367-.451-.526-.587-.161" transform="translate(73.884 23.707)"/>
    <path id="Path_1482" data-name="Path 1482" d="M573.49,184.764,571.9,189c-.138.367.451.526.587.162q.794-2.119,1.588-4.241c.138-.367-.451-.526-.587-.161" transform="translate(74.032 23.892)"/>
    <path id="Path_1483" data-name="Path 1483" d="M575.052,184.441a14.048,14.048,0,0,0-1.687,4.61c-.067.384.521.548.588.161a13.536,13.536,0,0,1,1.625-4.465.3.3,0,0,0-.526-.307" transform="translate(74.223 23.857)"/>
    <path id="Path_1484" data-name="Path 1484" d="M576.194,184.722a16.035,16.035,0,0,0-1.7,4.285c-.091.382.5.544.587.163a15.493,15.493,0,0,1,1.64-4.141.3.3,0,0,0-.526-.307" transform="translate(74.369 23.894)"/>
    <path id="Path_1485" data-name="Path 1485" d="M577.036,185.009a11.473,11.473,0,0,0-1.535,4.267.316.316,0,0,0,.212.375.306.306,0,0,0,.375-.212,11.04,11.04,0,0,1,1.474-4.122.3.3,0,0,0-.526-.307" transform="translate(74.5 23.931)"/>
    <path id="Path_1486" data-name="Path 1486" d="M578.075,185.071l-.993,3.246c-.115.376.473.536.587.161l.993-3.246c.115-.375-.472-.536-.587-.162" transform="translate(74.703 23.93)"/>
    <path id="Path_1487" data-name="Path 1487" d="M579.169,185.357q-.341,1.46-.68,2.92c-.088.382.5.544.589.161q.339-1.459.679-2.92c.089-.381-.5-.544-.587-.162" transform="translate(74.886 23.967)"/>
    <path id="Path_1488" data-name="Path 1488" d="M580.4,185.3a4.341,4.341,0,0,0-.721,2.1.307.307,0,0,0,.3.3.313.313,0,0,0,.3-.3,2.911,2.911,0,0,1,.065-.451,4.085,4.085,0,0,1,.135-.485,2.935,2.935,0,0,1,.18-.42,4.283,4.283,0,0,1,.256-.434.307.307,0,0,0-.11-.417.312.312,0,0,0-.417.11" transform="translate(75.041 23.968)"/>
    <path id="Path_1489" data-name="Path 1489" d="M580.974,186.1l-.325.325a.228.228,0,0,0-.063.1.279.279,0,0,0,0,.235.242.242,0,0,0,.063.1.31.31,0,0,0,.216.089.326.326,0,0,0,.216-.089l.325-.325a.227.227,0,0,0,.062-.1.268.268,0,0,0,0-.235.215.215,0,0,0-.062-.1.31.31,0,0,0-.216-.089.315.315,0,0,0-.216.089" transform="translate(75.155 24.079)"/>
    <path id="Path_1490" data-name="Path 1490" d="M559.182,176.358l-1.639,2.592c-.21.333.317.639.526.308l1.639-2.593c.21-.332-.317-.638-.526-.307" transform="translate(72.17 22.812)"/>
    <path id="Path_1491" data-name="Path 1491" d="M558.3,175.506a9.149,9.149,0,0,0-1.332,3c-.091.382.5.544.588.163a8.647,8.647,0,0,1,1.27-2.854.3.3,0,1,0-.526-.307" transform="translate(72.1 22.7)"/>
    <path id="Path_1492" data-name="Path 1492" d="M560.9,160.646a20.637,20.637,0,0,0-4.243,20.344,19.786,19.786,0,0,0,15.813,12.888,19.535,19.535,0,0,0,10.572-1.187,15.293,15.293,0,0,0,8.141-7.907,24.017,24.017,0,0,0,1.9-10.947c-.181-3.882-1.023-8-3.3-11.232-2.389-3.394-6.154-5.1-10.172-5.694a29.31,29.31,0,0,0-12.822.691,17.377,17.377,0,0,0-2.947,1.238c-.68.361-.076,1.395.6,1.033,3.671-1.955,7.967-2.257,12.051-2.065,3.776.176,7.834.969,10.7,3.624,2.75,2.551,3.976,6.317,4.466,9.945a25.314,25.314,0,0,1-.662,10.469,14.821,14.821,0,0,1-5.939,8.447,17.425,17.425,0,0,1-10.146,2.633,19.027,19.027,0,0,1-16.2-10.083,19.564,19.564,0,0,1,1.44-19.384,17.338,17.338,0,0,1,1.6-1.969c.526-.561-.319-1.41-.846-.846" transform="translate(71.924 20.262)"/>
    <path id="Path_1493" data-name="Path 1493" d="M578.349,165.346a6.985,6.985,0,0,0-10.048,2.3,13.3,13.3,0,0,0-1.328,6.069c-.075,2.577.029,5.166.06,7.744q.058,4.706.113,9.411a.6.6,0,0,0,1.2,0q-.091-7.6-.182-15.2c-.04-3.519.054-8.309,3.881-9.915a5.888,5.888,0,0,1,5.7.63c.625.453,1.222-.585.6-1.033" transform="translate(73.393 21.243)"/>
    <path id="Path_1494" data-name="Path 1494" d="M572.1,191.322a25.348,25.348,0,0,1-.808-10.633l-.577.439,5.844-.079c.438-.007.7-.008.939-.4a3.675,3.675,0,0,0,.325-.73,4.022,4.022,0,0,0,.211-1.611,1.78,1.78,0,0,0-1.961-1.786,25.378,25.378,0,0,0-4.51.16l.736.736a8.922,8.922,0,0,0-.513-3.636,4.073,4.073,0,0,1,.133-3.181,2.086,2.086,0,0,1,2.31-1.192c1.067.251,1.219,1.6,1.429,2.494a.605.605,0,0,0,.879.357,2.85,2.85,0,0,1,1.414-.3c.244.008.5.087.745.079.7-.025.889-.712.994-1.277a5.184,5.184,0,0,0,0-2.348,9.544,9.544,0,0,0-1.269-2.7c-.414-.647-1.45-.047-1.033.6a8.86,8.86,0,0,1,1.1,2.227,3.915,3.915,0,0,1,.044,1.965,1.058,1.058,0,0,0-.062.334q-.1.242.234,0l.05.007a4.7,4.7,0,0,0-.719-.082,4.113,4.113,0,0,0-2.094.462l.88.358c-.277-1.179-.56-2.565-1.756-3.147a3.106,3.106,0,0,0-3.492.649,4.427,4.427,0,0,0-1.25,3.248c.072,1.6,1.055,3.147.831,4.763a.61.61,0,0,0,.736.736,13.17,13.17,0,0,1,2.262-.137,13.653,13.653,0,0,1,2.244.018c.932.165.317,1.938.012,2.428l.516-.3-6.2.084a.605.605,0,0,0-.577.439,26.784,26.784,0,0,0,.808,11.27.6.6,0,0,0,1.154-.318" transform="translate(73.772 21.416)"/>
    <path id="Path_1495" data-name="Path 1495" d="M484.095,106.747V123.3c0,9.012-6.349,11.789-14.567,11.789s-14.569-2.777-14.569-10.129v-9.747H448.59v18.968h-9.712V115.211h-4.459v-8.464h4.459v-3.466c0-3.792.106-6.559,2.778-9.6,2.391-2.83,5.931-3.665,9.544-4.386,8.083-1.6,12.217-2.874,13.592-3.6l.018,12.648c-2.714-.125-11.583-.616-12.857-.616-2.518,0-3.363,1.493-3.363,4.584v4.427h16.081v14.682c0,3.466.856,5.921,4.857,5.921s4.854-2.454,4.854-5.921V106.747Z" transform="translate(56.237 11.095)"/>
    <path id="Path_1496" data-name="Path 1496" d="M484.512,121.964a15.609,15.609,0,0,0,8.985,3.661c1.229,0,3.04-.586,3.04-2.082,0-2.132-3.04-2.241-6.082-3.04s-6.082-2.346-6.082-7.256c0-6.725,6.082-9.71,12.06-9.71a21.733,21.733,0,0,1,9.015,1.76l-2.032,6.873a12.547,12.547,0,0,0-6.449-2.016c-1.12,0-3.042.478-3.042,1.865,0,1.868,3.042,2.137,4.375,2.4,4.536.908,7.95,3.092,7.95,8.163,0,7.2-6.564,10.192-12.912,10.192a21.231,21.231,0,0,1-11.048-3.149Z" transform="translate(62.434 13.403)"/>
    <rect id="Rectangle_1155" data-name="Rectangle 1155" width="1.031" height="27.43" transform="translate(601.288 117.836)"/>
    <path id="Path_1497" data-name="Path 1497" d="M537.931,115.53v-11.2h1.744a16.374,16.374,0,0,1,3.311.229,4.2,4.2,0,0,1,1.683.788,4.721,4.721,0,0,1,1.423,1.911,7.58,7.58,0,0,1,0,5.357,4.4,4.4,0,0,1-3.067,2.675,13.532,13.532,0,0,1-3.007.236h-2.087Zm1.016-.879h1.431a10.718,10.718,0,0,0,2.462-.2,2.881,2.881,0,0,0,1.231-.661,4.186,4.186,0,0,0,1.064-1.638,7.2,7.2,0,0,0,0-4.5,3.917,3.917,0,0,0-1.075-1.6,3.03,3.03,0,0,0-1.307-.681,12.37,12.37,0,0,0-2.7-.2h-1.1Z" transform="translate(69.637 13.506)"/>
    <rect id="Rectangle_1156" data-name="Rectangle 1156" width="1.018" height="11.197" transform="translate(618.482 117.84)"/>
    <path id="Path_1498" data-name="Path 1498" d="M560.2,107.178a4.453,4.453,0,0,0-3.916-2.141,4.411,4.411,0,0,0-3.387,1.407,5.592,5.592,0,0,0-.961,5.538,4.74,4.74,0,0,0,1.014,1.574,4.48,4.48,0,0,0,1.507,1.021,4.765,4.765,0,0,0,1.827.341,4.291,4.291,0,0,0,3.063-1.11,3.886,3.886,0,0,0,1.213-2.9H556.7v-.88h4.979v.123a5.783,5.783,0,0,1-1.46,4.19,5.329,5.329,0,0,1-4.023,1.513,5.484,5.484,0,0,1-4.122-1.621,5.839,5.839,0,0,1-1.576-4.252,6.54,6.54,0,0,1,.4-2.283,5.463,5.463,0,0,1,1.147-1.87,5.346,5.346,0,0,1,1.832-1.293,5.84,5.84,0,0,1,2.275-.428,6.426,6.426,0,0,1,2.922.616,4.327,4.327,0,0,1,1.874,1.809Z" transform="translate(71.264 13.477)"/>
    <rect id="Rectangle_1157" data-name="Rectangle 1157" width="1.017" height="11.197" transform="translate(635.086 117.84)"/>
    <path id="Path_1499" data-name="Path 1499" d="M567.781,115.531V105.29H564.7v-.957h7.189v.957H568.8v10.241Z" transform="translate(73.102 13.506)"/>
    <path id="Path_1500" data-name="Path 1500" d="M570.2,115.582l4.919-11.641,4.711,11.641h-1.109l-1.43-3.794h-4.573l-1.484,3.794Zm2.861-4.666h3.9l-1.911-4.871Z" transform="translate(73.814 13.456)"/>
    <path id="Path_1501" data-name="Path 1501" d="M579.833,115.531v-11.2h1.016v10.241h3.839v.957Z" transform="translate(75.061 13.506)"/>
    <path id="Path_1502" data-name="Path 1502" d="M536.576,129.951l4.918-11.641,4.711,11.641H545.1l-1.431-3.794h-4.573l-1.484,3.794Zm2.861-4.666h3.9l-1.911-4.871Z" transform="translate(69.461 15.316)"/>
    <path id="Path_1503" data-name="Path 1503" d="M555.206,121.547a4.453,4.453,0,0,0-3.916-2.141,4.411,4.411,0,0,0-3.387,1.407,5.591,5.591,0,0,0-.961,5.538,4.74,4.74,0,0,0,1.014,1.574,4.48,4.48,0,0,0,1.507,1.021,4.764,4.764,0,0,0,1.827.341,4.291,4.291,0,0,0,3.063-1.11,3.885,3.885,0,0,0,1.213-2.9H551.7v-.88h4.979v.123a5.778,5.778,0,0,1-1.462,4.19,5.324,5.324,0,0,1-4.022,1.513,5.484,5.484,0,0,1-4.123-1.621,5.839,5.839,0,0,1-1.576-4.252,6.542,6.542,0,0,1,.4-2.283,5.463,5.463,0,0,1,1.148-1.87,5.346,5.346,0,0,1,1.832-1.293,5.84,5.84,0,0,1,2.275-.428,6.425,6.425,0,0,1,2.922.616,4.326,4.326,0,0,1,1.874,1.809Z" transform="translate(70.617 15.337)"/>
    <path id="Path_1504" data-name="Path 1504" d="M557.3,129.9V118.7h5.544v.957h-4.528v3.5h4.528v.957h-4.528v4.825h4.528v.957Z" transform="translate(72.144 15.366)"/>
    <path id="Path_1505" data-name="Path 1505" d="M564.414,129.954V118.284l7.932,9.368v-8.894h.948v11.526l-7.923-9.384v9.055Z" transform="translate(73.065 15.312)"/>
    <path id="Path_1506" data-name="Path 1506" d="M583.8,120.782a5.974,5.974,0,0,0-1.705-1.063,4.93,4.93,0,0,0-1.835-.344,4.737,4.737,0,0,0-3.53,1.377,4.891,4.891,0,0,0-1.358,3.587,5.658,5.658,0,0,0,.332,2,4.436,4.436,0,0,0,1.014,1.576,4.6,4.6,0,0,0,1.541,1.024,4.906,4.906,0,0,0,1.862.352,5.543,5.543,0,0,0,1.882-.329,6.178,6.178,0,0,0,1.736-.971v1.193a7.265,7.265,0,0,1-1.748.776,6.385,6.385,0,0,1-1.823.271,6.308,6.308,0,0,1-2.326-.435,5.556,5.556,0,0,1-1.9-1.224,5.387,5.387,0,0,1-1.239-1.881,6.376,6.376,0,0,1-.42-2.348,6.283,6.283,0,0,1,.432-2.341,5.333,5.333,0,0,1,1.242-1.873,5.583,5.583,0,0,1,1.9-1.209,6.277,6.277,0,0,1,2.314-.437,6.468,6.468,0,0,1,1.984.295,5.339,5.339,0,0,1,1.664.884Z" transform="translate(74.343 15.337)"/>
    <path id="Path_1507" data-name="Path 1507" d="M587.213,129.9v-5.155L583.5,118.7h1.223l3.007,5.132,3.02-5.132h1.163l-3.679,6.043V129.9Z" transform="translate(75.536 15.366)"/>
    <path id="Path_1508" data-name="Path 1508" d="M508.781,121.964a15.609,15.609,0,0,0,8.985,3.661c1.229,0,3.04-.586,3.04-2.082,0-2.132-3.04-2.241-6.082-3.04s-6.082-2.346-6.082-7.256c0-6.725,6.082-9.71,12.06-9.71a21.733,21.733,0,0,1,9.015,1.76l-2.032,6.873a12.547,12.547,0,0,0-6.449-2.016c-1.12,0-3.041.478-3.041,1.865,0,1.868,3.041,2.137,4.374,2.4,4.536.908,7.95,3.092,7.95,8.163,0,7.2-6.564,10.192-12.912,10.192a21.231,21.231,0,0,1-11.048-3.149Z" transform="translate(65.576 13.403)"/>
    <path id="Path_1509" data-name="Path 1509" d="M479.554,93.352v4h-9.659c-.108-1.367-.23-2.687-.46-4Z" transform="translate(60.77 12.085)"/>
    <path id="Path_1510" data-name="Path 1510" d="M478.438,88.625,469.071,92.3a19.743,19.743,0,0,0-1.582-3.671l9.195-3.618a21.4,21.4,0,0,1,1.754,3.613" transform="translate(60.518 11.005)"/>
    <path id="Path_1511" data-name="Path 1511" d="M472.979,80.859l-6.266,6.86a20.286,20.286,0,0,0-2.621-3.06l.3-.323c1.65-1.713,3.749-4,5.389-5.879a21.142,21.142,0,0,1,3.2,2.4" transform="translate(60.078 10.157)"/>
    <path id="Path_1512" data-name="Path 1512" d="M936.363,385.777c-.062-.372-.155-.774-.217-1.145-.031-.185-.062-.34-.093-.495-.155-.774-.247-1.238-.279-1.362A218,218,0,0,0,904.058,306c-14.729-22.187-33.45-41.712-53.965-58.638C834.9,234.834,818.5,223.2,800.614,214.845c-.061-.062-.093-.124-.185-.155-5.539-3.929-12.161,1.362-16.431,4.765-4.239-2.352-8.509-4.641-12.779-6.9-5.787-3.063-11.636-6.035-18.226-6.777-7.179-.8-14.42-2.042-21.629-2.538q5.662-11.881,11.078-23.888a72.91,72.91,0,0,0,5.384-10.768c.835-2.321,1.795-5.291.68-7.705-2.042-4.518-10.118-4.8-13.924-2.227a1.658,1.658,0,0,0-.464.247c-.093.062-.124.123-.217.185,0,.032-.062.032-.062.062-.061.03-.061.062-.093.093-3.156,2.785-4.95,6.344-6.312,10.3-1.67,4.92-3.033,9.934-4.672,14.853-2.259,6.715-4.765,13.337-7.457,19.9-6.9,1.949-11.666,8.169-14.977,14.2-2.2,3.961-4.766,7.952-6.035,12.378-1.3,4.61-.217,9.1,1.053,13.584a1.669,1.669,0,0,0,.4.649c-4.518,9.84-7.952,19.989-7.8,30.913a1.521,1.521,0,0,0,2.382,1.144c3.683-3.28,7.4-6.529,11.079-9.809a1.721,1.721,0,0,0,.433-.587,1.427,1.427,0,0,0,.712-.649c1.33-2.538,2.661-5.106,3.991-7.675h.032c5.756-2.723,10.676-8.23,16.338-10.768,5.137-2.321,10.459-1.206,15.782-2.476,4.424-1.083,8.045-4.084,12.563-5.012a37.232,37.232,0,0,1,12.316-.309c-.867,2.878.587,5.137,2.939,6.684a1.271,1.271,0,0,0,.557.372,8.477,8.477,0,0,0,2.166.835c45.271,16.741,76.213,60.557,95.244,102.98a325.839,325.839,0,0,1,12.563,32.83l.094.279c.278.928,1.33,4.178,2.661,8.509.464,1.609.989,3.342,1.516,5.167,1.825,6.252,3.806,13.43,5.013,19l1.517-.34,1.516-.31c-1.423-6.654-3.991-15.533-6.064-22.465-1.826-6.1-3.312-10.676-3.342-10.768a304.929,304.929,0,0,0-30.634-66.992c-13.089-20.98-29.458-40.474-49.633-54.986a127.823,127.823,0,0,0-23.363-13.4c.217-.062.464-.124.712-.217a42.4,42.4,0,0,0,19.309-13.4c2.629-3.156,7.117-9.283,6.807-14.171,14.141,7.085,27.292,16.152,39.7,25.962a299.522,299.522,0,0,1,34.811,32.088c17.02,18.442,31.346,39.267,41.433,62.289A215.837,215.837,0,0,1,932.8,383.393c0,.032.093.372.186.991.031.217.093.495.155.8.123.619.278,1.331.433,2.2.093.434.155.866.247,1.362l.186,1.021c.4,2.073.836,4.518,1.269,7.179a199.529,199.529,0,0,1,2.568,20.082l1.547-.061,1.547-.094c-.558-10.057-3.312-24.816-4.58-31.1M735.85,161.406a.31.31,0,0,0,.124-.155.714.714,0,0,0,.155-.093c1.733-1.578,4.858-1.145,6.9-.557,2.568.742,3.218,1.857,2.661,4.486-.866,4.24-3.31,8.262-5.477,12.038-3.559-1.362-7.086-2.847-10.644-4.208,1.268-4.27,2.754-8.6,6.281-11.511m-7.209,14.42c3.4,1.33,6.807,2.723,10.21,4.022q-.649,1.44-1.3,2.878a14.144,14.144,0,0,1-8.479-3.867,1.259,1.259,0,0,0-1.3-.341c.278-.9.618-1.795.866-2.691m-4.3,13.3c.928-2.691,1.764-5.415,2.63-8.138a.645.645,0,0,0,.124.185,16.642,16.642,0,0,0,9.159,4.395c-8.385,18.38-17.111,36.513-27.106,54.088l-.651.464c-3,1.949-6.59,3.28-9.623,5.291,4.27-9.1,9.468-17.917,13.491-26.673,4.456-9.655,8.447-19.556,11.974-29.613m-27.044,42.331c1.083-3.775,3.373-7.241,5.26-10.676,2.568-4.7,6.1-10.3,11.2-12.748-1.33,3.125-2.693,6.281-4.116,9.376-3.62,7.86-8.077,15.688-12.006,23.733a18.043,18.043,0,0,1-.34-9.685m-6.22,41a55.13,55.13,0,0,1,1.517-9.84c1.825,1.206,3.65,2.444,5.477,3.652-2.321,2.042-4.672,4.115-6.994,6.188m9.128-8.417c-2.227-1.485-4.425-2.94-6.652-4.425-.062-.03-.093-.03-.155-.062.309-1.021.619-2.01.928-3.033,1.052,2.228,3.31,3.745,6.745,3.466.464-.031.9-.124,1.33-.185-.742,1.423-1.454,2.816-2.2,4.239m73.3-19.215c-2.754.495-8.107-.588-6.9-4.457a50.354,50.354,0,0,1,10.583,3.4,19.871,19.871,0,0,1-3.682,1.053m19.927-12.47a40.069,40.069,0,0,1-11.882,9.468c-.217.124-.464.217-.681.341a51.885,51.885,0,0,0-20.361-5.54,36.212,36.212,0,0,0-10.489.713c-4.271.989-7.767,3.775-12.006,4.858-4.425,1.114-9.036.247-13.461,1.578a38.209,38.209,0,0,0-10.427,5.631c-3.342,2.383-6.654,5.446-10.521,6.869-1.64.588-3.9,1.145-5.539.217-2.878-1.64-1.176-5.477.649-7.148,3.435-3.156,8.509-4.671,12.378-7.271a60.284,60.284,0,0,0,11.046-9.747c1.331-1.454-.989-3.465-2.32-1.98a64.827,64.827,0,0,1-4.61,4.58c5.229-9.5,10.118-19.124,14.822-28.871a1.137,1.137,0,0,0,.464.124c3.929.247,7.766.959,11.635,1.547,3.62.526,7.24.649,10.829,1.114,6.561.836,12.347,4.023,18.071,7.086,8.262,4.394,16.524,8.911,24.539,13.739-.836,1.145-1.609,2.1-2.136,2.693m3.868-5.2c-3.435-2.1-6.931-4.116-10.428-6.1,2.97-2.414,7.024-5.631,10.676-4.395,4.3,1.424,2.352,6.375-.247,10.49" transform="translate(89.057 20.327)"/>
    <path id="Path_1513" data-name="Path 1513" d="M436.424,167.153a4.367,4.367,0,0,0-.634.994.548.548,0,0,1-.331.5l-.427.837a1.257,1.257,0,0,1-.437.892c-.089.243-.18.485-.269.727a.51.51,0,0,1-.243.623q-.092.308-.182.617a.558.558,0,0,1-.191.618,15.076,15.076,0,0,0,1.493,11.452,20.505,20.505,0,0,0,14.007,10.519,17.356,17.356,0,0,0,15.954-4.548,23.326,23.326,0,0,0,5.916-8.109,13.653,13.653,0,0,0,.48-1.331c.148-.486.453-.7.927-.541s.473.561.34.97a17.819,17.819,0,0,1-2.174,4.543c-2.206,3.244-4.718,6.226-8.2,8.149-6.693,3.7-13.386,3.45-19.935-.4a22.1,22.1,0,0,1-8.653-8.926,16.493,16.493,0,0,1,.369-16.458A20.464,20.464,0,0,1,451.974,157.3c8.732-.413,14.981,3.832,19.25,11.221a19.246,19.246,0,0,1,2.484,8.506c.031.488.208,1.1-.556,1.22-.51.081-.712-.277-.769-1.148A19.754,19.754,0,0,0,466.8,164.64a17.417,17.417,0,0,0-4.692-3.663,1.478,1.478,0,0,1-.977-.509.808.808,0,0,0-.5-.251,1.018,1.018,0,0,1-.844-.376l-.625-.244a3.566,3.566,0,0,1-1.878-.565l-.228-.047a1.1,1.1,0,0,1-1.006-.2,11.806,11.806,0,0,0-2.695-.254.489.489,0,0,1-.636,0l-.494.009c-.365.081-.708.394-1.109.108a1.9,1.9,0,0,0-.87.1.707.707,0,0,1-.74.14l-.369.021c-.271.147-.524.364-.871.236a4.282,4.282,0,0,0-1.091.267.428.428,0,0,1-.5.178,1.527,1.527,0,0,0-.645.247c-.163.29-.461.223-.714.27a1.053,1.053,0,0,0-.516.23.524.524,0,0,1-.6.286l-.608.272a.9.9,0,0,1-.754.437l-.479.285c-.134.333-.451.381-.74.47a10.649,10.649,0,0,0-1.626,1.231.712.712,0,0,1-.591.507,3.345,3.345,0,0,0-.761.732.761.761,0,0,1-.488.495,1.18,1.18,0,0,0-.4.465c-.036.352-.323.483-.572.648l-.262.372c0,.332-.245.471-.483.616" transform="translate(55.904 20.359)"/>
    <path id="Path_1514" data-name="Path 1514" d="M449.76,170.841a8.518,8.518,0,0,1,3.746-2.188,4.711,4.711,0,0,1,4.51,1.189,10.347,10.347,0,0,1,2.924,5.919,45.226,45.226,0,0,1,.431,8.614c0,.647-.328.976-.865.968-.556-.007-.822-.313-.818-.992a44.37,44.37,0,0,0-.354-7.449,13.567,13.567,0,0,0-1.535-4.72,3.714,3.714,0,0,0-5.151-1.487,8.045,8.045,0,0,0-2.714,2.47,1.279,1.279,0,0,0-.178.824c-.026,2.634.064,5.27-.061,7.9a12.471,12.471,0,0,1-.459,2.793.8.8,0,0,1-1.026.636.769.769,0,0,1-.6-1.038,26.813,26.813,0,0,0,.469-7.178q.007-3.766.011-7.533a.73.73,0,0,1,.809-.8.742.742,0,0,1,.853.764c.027.386.006.777.006,1.306" transform="translate(57.94 21.813)"/>
    <path id="Path_1515" data-name="Path 1515" d="M444.648,173.127c-.2,3.568-.268,7.139-.3,10.711,0,.1,0,.206-.009.308a.785.785,0,0,1-.872.823c-.51,0-.8-.309-.788-.884.027-2.2.058-4.395.106-6.59.036-1.6.1-3.2.16-4.8a2.956,2.956,0,0,1,.086-.729.792.792,0,0,1,.959-.573.691.691,0,0,1,.662.749c0,.329,0,.657,0,.986" transform="translate(57.306 22.186)"/>
    <path id="Path_1516" data-name="Path 1516" d="M454.367,158.83a9.344,9.344,0,0,1,1.878.565c-.273.2-.064.42,0,.609.4,1.185.823,2.364,1.245,3.543.094.261.221.54-.147.663-.329.11-.412-.167-.494-.408-.119-.349-.241-.7-.388-1.126-.149.207-.25.43-.487.4s-.253-.255-.286-.425a16.42,16.42,0,0,0-1.321-3.824" transform="translate(58.819 20.561)"/>
    <path id="Path_1517" data-name="Path 1517" d="M442.616,167.366c.784-.383,1.338-.354,1.8.122a1.342,1.342,0,0,1,.3,1.578,1.531,1.531,0,0,1-1.467.917.659.659,0,0,1-.627-.315c-.3-.652-.747-1.3-.242-2.056a.294.294,0,0,1,.238-.246" transform="translate(57.238 21.632)"/>
    <path id="Path_1518" data-name="Path 1518" d="M446.384,158.957l.871-.236c-.233.294.02.511.142.718a33.613,33.613,0,0,1,3.012,6.793c.078.241.271.557-.077.7-.4.163-.463-.207-.555-.476a34.309,34.309,0,0,0-3.258-7.158,1.9,1.9,0,0,1-.136-.34" transform="translate(57.786 20.547)"/>
    <path id="Path_1519" data-name="Path 1519" d="M447.482,158.718a1.391,1.391,0,0,1,.74-.139q.695,1.26,1.394,2.522a29.771,29.771,0,0,1,2.087,4.653c.082.237.279.556-.054.7-.378.162-.472-.209-.569-.473a36.994,36.994,0,0,0-3.447-6.931,2.547,2.547,0,0,1-.15-.329" transform="translate(57.928 20.528)"/>
    <path id="Path_1520" data-name="Path 1520" d="M444.971,159.344l.5-.178c.41.734.831,1.462,1.225,2.2q1.345,2.528,2.667,5.068c.119.228.329.5-.04.679-.315.152-.422-.12-.54-.342q-1.877-3.534-3.753-7.069a1.184,1.184,0,0,1-.063-.359" transform="translate(57.603 20.605)"/>
    <path id="Path_1521" data-name="Path 1521" d="M443.768,159.813a1.931,1.931,0,0,1,.714-.27l3.436,6.486c.077.146.151.293.22.442.1.221.151.456-.11.59s-.369-.069-.472-.26c-.46-.849-.926-1.7-1.381-2.547-.794-1.485-1.5-3.017-2.407-4.441" transform="translate(57.447 20.653)"/>
    <path id="Path_1522" data-name="Path 1522" d="M448.906,158.5a4.947,4.947,0,0,1,1.109-.108c-.368.215-.129.427,0,.648a33.159,33.159,0,0,1,2.745,6.111c.077.237.21.494-.145.607-.294.095-.4-.125-.476-.352a34.927,34.927,0,0,0-3.23-6.905" transform="translate(58.112 20.502)"/>
    <path id="Path_1523" data-name="Path 1523" d="M442.777,160.272a1.449,1.449,0,0,1,.6-.286q1.73,3.268,3.456,6.537c.123.234.293.506-.016.709-.261.172-.43-.047-.535-.248q-1.76-3.353-3.507-6.712" transform="translate(57.319 20.711)"/>
    <path id="Path_1524" data-name="Path 1524" d="M450.326,158.382l.636,0a14.157,14.157,0,0,1,2.786,5.834,2.722,2.722,0,0,1,.047.427c.01.2-.016.374-.276.392-.234.015-.313-.1-.36-.318a14.164,14.164,0,0,0-.616-2.187,14.871,14.871,0,0,0-1.894-3.444c-.155-.206-.365-.405-.324-.708" transform="translate(58.295 20.503)"/>
    <path id="Path_1525" data-name="Path 1525" d="M442.914,168l-.238.246c-.29.01-.375-.216-.469-.419-.757-1.64-1.507-3.284-2.27-4.922-.125-.269-.124-.488.139-.632s.386.085.468.263q1.188,2.6,2.35,5.22a.749.749,0,0,1,.02.244" transform="translate(56.941 21.001)"/>
    <path id="Path_1526" data-name="Path 1526" d="M454.5,163.892c.007.216-.055.389-.282.418-.314.041-.368-.219-.412-.434a12.628,12.628,0,0,0-1.381-3.607c-.211-.375-.448-.735-.672-1.1-.1-.167-.169-.346.019-.5a.316.316,0,0,1,.483.088,12.744,12.744,0,0,1,2.245,5.134" transform="translate(58.467 20.53)"/>
    <path id="Path_1527" data-name="Path 1527" d="M441.571,160.917l.754-.438a27.56,27.56,0,0,0,1.328,3.1c.277.662.6,1.306.9,1.957.119.255.226.536-.119.678-.322.132-.4-.151-.508-.383q-1.022-2.272-2.053-4.54a.644.644,0,0,0-.3-.373" transform="translate(57.163 20.775)"/>
    <path id="Path_1528" data-name="Path 1528" d="M440.492,161.589l.74-.47,2.145,4.778c.042.094.094.183.132.278.095.232.115.466-.157.573-.245.1-.389-.1-.475-.288-.431-.932-.852-1.869-1.273-2.806q-.4-.9-.806-1.8c-.061-.136-.134-.256-.3-.265" transform="translate(57.023 20.857)"/>
    <path id="Path_1529" data-name="Path 1529" d="M453.274,158.611a3.563,3.563,0,0,1,1.006.2c-.23.215.007.377.078.541a17.362,17.362,0,0,1,1.257,4.23c.035.22.193.586-.2.668s-.43-.28-.461-.522a17.241,17.241,0,0,0-1.677-5.116" transform="translate(58.678 20.533)"/>
    <path id="Path_1530" data-name="Path 1530" d="M437.423,164.217l.488-.5a13.227,13.227,0,0,1,2.332,4.749c.065.219.052.49-.248.534-.332.047-.39-.254-.453-.48a14.207,14.207,0,0,0-1.872-4.045,2.255,2.255,0,0,0-.247-.263" transform="translate(56.626 21.194)"/>
    <path id="Path_1531" data-name="Path 1531" d="M438.53,163.132c.2-.169.393-.338.588-.507q.893,1.965,1.786,3.929a4.516,4.516,0,0,1,.2.451c.072.221.258.485-.106.62-.332.124-.43-.156-.532-.372-.246-.52-.463-1.053-.712-1.571a26.263,26.263,0,0,0-1.221-2.55" transform="translate(56.769 21.052)"/>
    <path id="Path_1532" data-name="Path 1532" d="M436.56,165.219l.572-.648a15.3,15.3,0,0,1,1.955,4.279c.084.263.2.642-.151.75-.381.116-.443-.286-.51-.548a16.56,16.56,0,0,0-1.471-3.5c-.087-.167-.168-.334-.394-.334" transform="translate(56.514 21.304)"/>
    <path id="Path_1533" data-name="Path 1533" d="M435.9,166.091l.483-.616a10.887,10.887,0,0,1,1.912,4.06.328.328,0,0,1-.224.437c-.29.087-.393-.145-.456-.368a11.389,11.389,0,0,0-1.04-2.61c-.186-.324-.289-.724-.675-.9" transform="translate(56.429 21.421)"/>
    <path id="Path_1534" data-name="Path 1534" d="M435.047,167.4l.331-.5a.6.6,0,0,1,.5.393c.483.923.972,1.842,1.452,2.767.111.213.278.465-.051.628-.311.155-.426-.1-.547-.321q-.71-1.32-1.431-2.633a2.749,2.749,0,0,0-.258-.332" transform="translate(56.318 21.606)"/>
    <path id="Path_1535" data-name="Path 1535" d="M434.281,168.978l.437-.892c.389.882.988,1.639,1.454,2.476.123.221.4.444.054.669-.366.235-.486-.112-.649-.337a13.639,13.639,0,0,0-1.3-1.916" transform="translate(56.219 21.759)"/>
    <path id="Path_1536" data-name="Path 1536" d="M456.584,159.546a2.818,2.818,0,0,1,.844.376c.036.723.335,1.39.429,2.1a1.425,1.425,0,0,1,.056.238c-.009.268.155.654-.244.722-.37.062-.356-.34-.414-.572-.239-.951-.45-1.91-.671-2.865" transform="translate(59.106 20.654)"/>
    <path id="Path_1537" data-name="Path 1537" d="M457.776,160.1a2.877,2.877,0,0,1,.977.509c.16.551.34,1.1.472,1.655.059.244.13.586-.244.657-.352.067-.374-.28-.418-.5a21.456,21.456,0,0,0-.787-2.323" transform="translate(59.261 20.726)"/>
    <path id="Path_1538" data-name="Path 1538" d="M433.828,170.143l.243-.623a3.262,3.262,0,0,1,1.336,2.278.326.326,0,0,1-.319.314c-.242.023-.34-.151-.375-.333a3.042,3.042,0,0,0-.546-1.29,3.5,3.5,0,0,0-.34-.346" transform="translate(56.16 21.945)"/>
    <path id="Path_1539" data-name="Path 1539" d="M433.5,171.236a1.264,1.264,0,0,1,.191-.618.662.662,0,0,1,.511.958.268.268,0,0,1-.243.147c-.349.023-.294-.335-.459-.487" transform="translate(56.118 22.087)"/>
  </g>
</svg>
