<svg xmlns="http://www.w3.org/2000/svg" xmlns:xlink="http://www.w3.org/1999/xlink" width="200.272" height="65.215" viewBox="0 0 200.272 65.215">
  <defs>
    <clipPath id="clip-path">
      <rect id="Rectangle_10" data-name="Rectangle 10" width="200.272" height="65.215" fill="#fff"/>
    </clipPath>
  </defs>
  <g id="fuss_logo" data-name="fuss logo" transform="translate(0 -29)">
    <g id="Group_6" data-name="Group 6" transform="translate(0 29)" clip-path="url(#clip-path)">
      <path id="Path_118" data-name="Path 118" d="M56.273,33.609v18.75c0,10.209-7.192,13.355-16.5,13.355s-16.5-3.147-16.5-11.474V43.2H16.054V64.684h-11V43.2H0V33.609H5.052V29.681c0-4.294.119-7.428,3.147-10.871,2.709-3.205,6.719-4.153,10.812-4.969,9.156-1.81,13.839-3.256,15.4-4.073L34.429,24.1c-3.075-.142-13.124-.7-14.566-.7-2.852,0-3.809,1.691-3.809,5.193v5.016H34.27V50.241c0,3.928.97,6.707,5.5,6.707s5.5-2.779,5.5-6.707V33.609Z" transform="translate(0 -0.499)" fill="#fff"/>
      <path id="Path_119" data-name="Path 119" d="M67.063,54.691a17.678,17.678,0,0,0,10.178,4.147c1.392,0,3.445-.664,3.445-2.357,0-2.417-3.445-2.54-6.89-3.446s-6.89-2.658-6.89-8.219c0-7.619,6.89-11,13.663-11A24.622,24.622,0,0,1,90.78,35.81l-2.3,7.785a14.213,14.213,0,0,0-7.306-2.283c-1.27,0-3.446.541-3.446,2.111,0,2.116,3.446,2.422,4.956,2.722,5.138,1.029,9.006,3.5,9.006,9.247,0,8.161-7.437,11.547-14.627,11.547A24.047,24.047,0,0,1,64.548,63.37Z" transform="translate(-3.297 -1.727)" fill="#fff"/>
      <rect id="Rectangle_7" data-name="Rectangle 7" width="1.168" height="31.074" transform="translate(125.328 33.103)" fill="#fff"/>
      <path id="Path_120" data-name="Path 120" d="M139.57,47.574V34.891h1.976a18.675,18.675,0,0,1,3.751.259,4.783,4.783,0,0,1,1.906.893,5.364,5.364,0,0,1,1.611,2.165,8.586,8.586,0,0,1,0,6.069,4.985,4.985,0,0,1-3.474,3.029,15.307,15.307,0,0,1-3.406.268H139.57Zm1.152-1h1.621a12.083,12.083,0,0,0,2.79-.222,3.236,3.236,0,0,0,1.394-.749,4.706,4.706,0,0,0,1.205-1.855,8.126,8.126,0,0,0,0-5.094,4.449,4.449,0,0,0-1.217-1.819,3.464,3.464,0,0,0-1.481-.771,14.074,14.074,0,0,0-3.058-.225h-1.248Z" transform="translate(-7.128 -1.782)" fill="#fff"/>
      <rect id="Rectangle_8" data-name="Rectangle 8" width="1.153" height="12.684" transform="translate(144.804 33.109)" fill="#fff"/>
      <path id="Path_121" data-name="Path 121" d="M167.51,38.064a5.046,5.046,0,0,0-4.436-2.426,5,5,0,0,0-3.837,1.594,6.337,6.337,0,0,0-1.088,6.273A5.388,5.388,0,0,0,159.3,45.29,5.1,5.1,0,0,0,161,46.446a5.4,5.4,0,0,0,2.07.386,4.861,4.861,0,0,0,3.47-1.257,4.405,4.405,0,0,0,1.374-3.282h-4.376v-1h5.641v.139a6.553,6.553,0,0,1-1.656,4.748,6.033,6.033,0,0,1-4.557,1.714,6.216,6.216,0,0,1-4.67-1.836,6.616,6.616,0,0,1-1.785-4.818,7.375,7.375,0,0,1,.451-2.585,6.171,6.171,0,0,1,1.3-2.119,6.047,6.047,0,0,1,2.075-1.465,6.632,6.632,0,0,1,2.577-.485,7.269,7.269,0,0,1,3.31.7,4.9,4.9,0,0,1,2.123,2.05Z" transform="translate(-7.994 -1.767)" fill="#fff"/>
      <rect id="Rectangle_9" data-name="Rectangle 9" width="1.152" height="12.684" transform="translate(163.615 33.109)" fill="#fff"/>
      <path id="Path_122" data-name="Path 122" d="M179.154,47.575v-11.6h-3.492V34.891h8.144v1.084h-3.5v11.6Z" transform="translate(-8.972 -1.782)" fill="#fff"/>
      <path id="Path_123" data-name="Path 123" d="M183.075,47.548l5.572-13.187,5.337,13.187h-1.257l-1.619-4.3h-5.181l-1.681,4.3Zm3.241-5.286h4.418l-2.165-5.518Z" transform="translate(-9.35 -1.755)" fill="#fff"/>
      <path id="Path_124" data-name="Path 124" d="M196.069,47.575V34.891h1.152v11.6h4.349v1.084Z" transform="translate(-10.014 -1.782)" fill="#fff"/>
      <path id="Path_125" data-name="Path 125" d="M137.743,66.922l5.57-13.187,5.338,13.187h-1.256l-1.621-4.3h-5.18l-1.681,4.3Zm3.241-5.286H145.4l-2.165-5.518Z" transform="translate(-7.035 -2.745)" fill="#fff"/>
      <path id="Path_126" data-name="Path 126" d="M160.771,57.438a5.046,5.046,0,0,0-4.436-2.426,5,5,0,0,0-3.837,1.594,6.337,6.337,0,0,0-1.088,6.273,5.388,5.388,0,0,0,1.148,1.785,5.1,5.1,0,0,0,1.708,1.156,5.4,5.4,0,0,0,2.07.386,4.861,4.861,0,0,0,3.47-1.257,4.405,4.405,0,0,0,1.374-3.282H156.8v-1h5.641v.139a6.553,6.553,0,0,1-1.656,4.748,6.033,6.033,0,0,1-4.557,1.714,6.216,6.216,0,0,1-4.67-1.836,6.616,6.616,0,0,1-1.785-4.818,7.375,7.375,0,0,1,.451-2.585,6.17,6.17,0,0,1,1.3-2.119,6.048,6.048,0,0,1,2.075-1.465,6.632,6.632,0,0,1,2.577-.485,7.269,7.269,0,0,1,3.31.7,4.9,4.9,0,0,1,2.123,2.05Z" transform="translate(-7.65 -2.756)" fill="#fff"/>
      <path id="Path_127" data-name="Path 127" d="M165.683,66.949V54.265h6.281v1.084h-5.129v3.967h5.129V60.4h-5.129v5.467h5.129v1.084Z" transform="translate(-8.462 -2.772)" fill="#fff"/>
      <path id="Path_128" data-name="Path 128" d="M175.278,66.92V53.7l8.985,10.613V54.236h1.074V67.292l-8.976-10.63V66.92Z" transform="translate(-8.952 -2.743)" fill="#fff"/>
      <path id="Path_129" data-name="Path 129" d="M199.367,56.572a6.785,6.785,0,0,0-1.931-1.2,5.6,5.6,0,0,0-2.08-.39,5.373,5.373,0,0,0-4,1.559,5.543,5.543,0,0,0-1.538,4.064,6.418,6.418,0,0,0,.377,2.261,5.051,5.051,0,0,0,1.148,1.785,5.232,5.232,0,0,0,1.746,1.161,5.568,5.568,0,0,0,2.11.4,6.264,6.264,0,0,0,2.131-.372,7.015,7.015,0,0,0,1.966-1.1v1.351a8.232,8.232,0,0,1-1.98.88,7.275,7.275,0,0,1-2.065.306,7.135,7.135,0,0,1-2.634-.492,6.3,6.3,0,0,1-2.158-1.386,6.123,6.123,0,0,1-1.4-2.131,7.211,7.211,0,0,1-.476-2.66,7.135,7.135,0,0,1,.489-2.652,6.055,6.055,0,0,1,1.408-2.122,6.326,6.326,0,0,1,2.153-1.369,7.124,7.124,0,0,1,2.622-.494,7.306,7.306,0,0,1,2.248.334,6.04,6.04,0,0,1,1.884,1Z" transform="translate(-9.631 -2.756)" fill="#fff"/>
      <path id="Path_130" data-name="Path 130" d="M205.218,66.949V61.11l-4.21-6.845h1.385l3.406,5.813,3.422-5.813h1.317l-4.167,6.845v5.84Z" transform="translate(-10.266 -2.772)" fill="#fff"/>
      <path id="Path_131" data-name="Path 131" d="M99.786,54.691a17.678,17.678,0,0,0,10.178,4.147c1.392,0,3.445-.664,3.445-2.357,0-2.417-3.445-2.54-6.89-3.446s-6.89-2.658-6.89-8.219c0-7.619,6.89-11,13.663-11A24.622,24.622,0,0,1,123.5,35.81l-2.3,7.785a14.213,14.213,0,0,0-7.306-2.283c-1.27,0-3.446.541-3.446,2.111,0,2.116,3.446,2.422,4.956,2.722,5.138,1.029,9.006,3.5,9.006,9.247,0,8.161-7.437,11.547-14.627,11.547A24.047,24.047,0,0,1,97.271,63.37Z" transform="translate(-4.968 -1.727)" fill="#fff"/>
      <path id="Path_132" data-name="Path 132" d="M58.676,20.083v4.531H47.734c-.122-1.549-.262-3.045-.521-4.531Z" transform="translate(-2.411 -1.026)" fill="#fff"/>
      <path id="Path_133" data-name="Path 133" d="M56.992,12.932,46.382,17.1a22.357,22.357,0,0,0-1.792-4.158l10.415-4.1a24.3,24.3,0,0,1,1.987,4.093" transform="translate(-2.277 -0.452)" fill="#fff"/>
      <path id="Path_134" data-name="Path 134" d="M50.075,2.721l-7.1,7.772a22.919,22.919,0,0,0-2.969-3.465l.344-.367c1.869-1.94,4.246-4.53,6.1-6.66a23.922,23.922,0,0,1,3.62,2.721" transform="translate(-2.043 0)" fill="#fff"/>
    </g>
  </g>
</svg>
