<svg xmlns="http://www.w3.org/2000/svg" width="509.255" height="564.526" viewBox="0 0 509.255 564.526">
  <g id="Group_161839" data-name="Group 161839" transform="translate(937.926 -1576.231) rotate(-25)">
    <path id="Path_139" data-name="Path 139" d="M-1189.15,1170.764a12.311,12.311,0,0,1,11.1,6.875l.031.064c4.881,10.151,4.8,21.163,3.359,31.544-1.964,14.2-7.2,27.674-17.253,38.622a14.033,14.033,0,0,0-3.512,7.414c-1.1,6.772-4.065,12.758-7.833,18.384-5.039,7.524-10.087,15.043-15.246,22.485-1.246,1.8-1.739,2.932.237,4.713,10.365,9.343,13.021,21.164,10.263,34.59-.069.338-.158.677-.252,1.008-3.566,12.548-1.135,22.948,9.438,31.638,8.011,6.584,13.244,15.888,16.246,25.59,3.3,10.664,3.244,21.958-1.74,32.489-1.724,3.641-1.222,6.248,1.051,9.559,11.239,16.37,10.141,33.252.946,50.023-10.946,19.965-24.189,38.236-40.617,54.142-3.059,2.962-4.385,1.258-5.855-1.158a.941.941,0,0,0-.575,1.441c4.7,6.311,2.766,13.446,1.637,19.98-2.025,11.722-2.41,23.88-7.714,34.9a16.762,16.762,0,0,1-1.6,3.1c-1.582,2.033-3.395,2.231-5.039.056a18.734,18.734,0,0,1-3.47-9.736c-2.346-22.532-5.386-44.9-14.651-65.938-5.462-12.4-11.9-24.132-21.612-33.725a262.752,262.752,0,0,1-36.205-43.818c-.481-.888-.926-1.8-1.451-2.667a96.35,96.35,0,0,1-13.877-43.8c-1-13.773-.276-27.427,1.05-41.1,1.987-20.473,4.616-40.877,8.436-61.08,5.19-27.451,16.321-52.941,27.276-78.4q.12-.278.24-.555a78.055,78.055,0,0,1,71.627-46.634Z" transform="translate(-45.168)" fill="#124394"/>
    <path id="Path_140" data-name="Path 140" d="M-1334.2,1170.764c24,0,39.956,24.631,30.362,46.634-.081.184-.161.369-.24.555-10.955,25.463-22.086,50.953-27.276,78.4-3.82,20.2-6.449,40.607-8.436,61.08-1.326,13.669-2.052,27.322-1.05,41.1a96.35,96.35,0,0,0,13.876,43.8c.525.865.97,1.779,1.451,2.667-2.85,6.463-3.335,13.507-4.766,20.3-1.914,9.073-5.986,17.806-4.987,27.383.95,9.117.864,18.316,2.339,27.4a19.693,19.693,0,0,1-1.419,11.992c-3.172,6.6-9.089,7.349-13.661,1.495a121.725,121.725,0,0,1-15.676-26.737c-5.276-12.185-11.409-24.055-15.843-36.533-4.138-11.643-9.441-23.007-11.71-35.221a222.457,222.457,0,0,1-2.694-64c2.817-26.916,1.911-53.927,2.818-80.889,1.029-30.612,7.244-60.376,20.67-88.288,4.5-9.345,11.026-17.129,17.948-24.674l.059-.064a20.469,20.469,0,0,1,15.055-6.384Z" transform="translate(-37.664)" fill="#80acdc"/>
    <path id="Path_141" data-name="Path 141" d="M-1501.157,1522.054a163.9,163.9,0,0,0-25.96-21.437c-12.787-8.726-26.458-16.073-39.043-25.124a263.013,263.013,0,0,1-23.067-18.844c-12.084-10.961-19.729-24.892-26.5-39.33-3.814-8.134-2.778-16.4,1.356-24.455,8.649-16.847,29.153-23.411,44.162-20.454,18.667,3.678,32.712,14.089,44.066,28.792a220.194,220.194,0,0,1,15.734,24.243c7.207,12.4,16.161,23.072,27.829,31.676a88.271,88.271,0,0,1,31.5,42.785c6.732,19.377,17.7,36.439,28.307,53.733,11.216,18.289,23.05,36.225,31.809,55.92a20.557,20.557,0,0,1,1.841,11.462c-.619,4.582-2.977,7.477-7.109,5.79-8.336-3.4-17.434-2.956-25.632-5.946-11.5-4.2-22.615-9.434-33.873-14.279a25.905,25.905,0,0,1-5.415-2.848c-15.165-11.441-32.6-18.77-49.4-27.219a47.053,47.053,0,0,1-21.312-21.258c-4.837-9.445-2.362-23.372,5.832-30.127,5.408-4.458,12.17-4.4,18.811-3.912C-1505.63,1521.337-1504.057,1521.648-1501.157,1522.054Z" transform="translate(-10.37 -24.598)" fill="#703180"/>
    <path id="Path_142" data-name="Path 142" d="M-1076.875,1252.379a72.382,72.382,0,0,1,25.785,4.374c12.985,4.764,19.436,21.283,15.19,34.368-2.527,7.79-7.529,11.5-13.878,15.146-22.9,13.168-48.219,18.875-73.584,24.561-12.2,2.734-24.381,4.615-36.853,1.735-14.411-3.328-20.158-14.908-13.878-28.3a38.467,38.467,0,0,1,9.885-13.277,181.648,181.648,0,0,1,70.8-36.94,44.3,44.3,0,0,1,7.343-1.18C-1083.015,1252.576-1079.94,1252.529-1076.875,1252.379Z" transform="translate(-64.409 -9.99)" fill="#703180"/>
    <path id="Path_143" data-name="Path 143" d="M-1285.995,1595.48c-.926,19.065-1.811,38.132-2.834,57.193a20.559,20.559,0,0,1-1.577,6.322c-2.255,5.671-5.559,6.212-9.791,1.688-3.354-3.586-4.516-8.2-5.138-12.8-2.025-14.992-3.9-29.944-4.02-45.189-.09-11.271.014-22.359,2.111-33.416a29.911,29.911,0,0,1,3-8.187c3-5.778,7.016-6.015,10.381-.5a53.716,53.716,0,0,1,7.648,25.253c.187,3.2.03,6.424.03,9.636Z" transform="translate(-48.158 -47.227)" fill="#80acdc"/>
    <path id="Path_144" data-name="Path 144" d="M-1479.819,1256.9c.165-17.666,15.132-27.05,29.9-18.75,2.731,1.534,5.12,3.492,6.343,6.425,3.7,8.876,7.2,17.862,8.693,27.407,1.857,11.882-7.826,20.439-19.363,17.383C-1468.417,1285.61-1479.951,1270.969-1479.819,1256.9Z" transform="translate(-27.295 -7.874)" fill="#ffec00"/>
    <path id="Path_145" data-name="Path 145" d="M-1695.016,1468.869c6.363.21,10.381,2.7,13.913,5.73,7.98,6.839,16.935,12.372,25.024,19.018,5.682,4.668,11.711,9.318,13.33,17.277,1.12,5.507-4.05,11.727-9.271,10.1-17.594-5.492-33.915-13.418-45.52-28.453-3.255-4.216-5.705-9.173-5.213-14.968C-1702.328,1472.559-1698.543,1468.872-1695.016,1468.869Z" transform="translate(0 -36.489)" fill="#703180"/>
    <path id="Path_146" data-name="Path 146" d="M-1443.049,1414.222c-.2,1.178.492,2.685-.828,3.248-1.769.756-2.693-.906-3.461-1.995-5-7.083-8.383-15.044-12.021-22.844-4.439-9.52-7.006-19.793-11.541-29.3a20.482,20.482,0,0,1-1.984-9.775,6.142,6.142,0,0,1,3.756-5.883c2.518-1.151,4.434.214,6.3,1.741,6.977,5.708,10.141,13.582,11.541,22.03,2.239,13.507,4.862,26.918,7.975,40.243A19.057,19.057,0,0,1-1443.049,1414.222Z" transform="translate(-28.142 -21.602)" fill="#80acdc"/>
    <path id="Path_147" data-name="Path 147" d="M-1594.154,1548.95c-5.867.141-10.853-1.718-14.675-6.357a8.665,8.665,0,0,1-1.649-8.641c1.082-3.14,4.161-3.873,7.14-4.165,7.711-.756,13.225,2.932,17.137,9.142,3.6,5.712,1.454,9.521-5.325,10.012C-1592.4,1549-1593.278,1548.95-1594.154,1548.95Z" transform="translate(-11.24 -43.933)" fill="#703180"/>
  </g>
</svg>
