<svg xmlns="http://www.w3.org/2000/svg" width="19.975" height="68.753" viewBox="0 0 19.975 68.753">
  <g id="Group_161858" data-name="Group 161858" transform="matrix(-0.629, 0.777, -0.777, -0.629, -1498.604, 3984.099)">
    <path id="Path_1544" data-name="Path 1544" d="M-4028.234,1349.6l-3.7,2.876a2.085,2.085,0,0,0-.1,2.925,2.113,2.113,0,0,0,2.926.1l3.7-2.875a2.086,2.086,0,0,0,.1-2.926A2.114,2.114,0,0,0-4028.234,1349.6Z" transform="translate(-13.852 -22.173)" fill="#124394"/>
    <path id="Path_1545" data-name="Path 1545" d="M-4006.847,1333.295a21.778,21.778,0,0,0-4.527,3.248c-1.947,1.819.874,4.849,2.824,3.028a17.191,17.191,0,0,1,3.622-2.605C-4002.581,1335.7-4004.5,1332.03-4006.847,1333.295Z" transform="translate(-21.661 -16.082)" fill="#124394"/>
    <path id="Path_1546" data-name="Path 1546" d="M-3986.835,1319.425a18.962,18.962,0,0,0-5.693,4.911,2.082,2.082,0,0,0,.679,2.848,2.126,2.126,0,0,0,2.848-.68c-.223.274.21-.218.255-.265.179-.191.365-.377.552-.56.4-.391.817-.767,1.244-1.129a9.6,9.6,0,0,1,2.034-1.455C-3982.542,1321.874-3984.465,1318.206-3986.835,1319.425Z" transform="translate(-28.946 -10.818)" fill="#124394"/>
    <path id="Path_1547" data-name="Path 1547" d="M-3971.512,1305.214l-4.107,3.286a2.088,2.088,0,0,0-.1,2.926,2.112,2.112,0,0,0,2.926.1l4.107-3.286a2.088,2.088,0,0,0,.1-2.926A2.111,2.111,0,0,0-3971.512,1305.214Z" transform="translate(-35.248 -5.307)" fill="#124394"/>
    <path id="Path_1548" data-name="Path 1548" d="M-3956.826,1290.769l-9.985-.06c-2.664-.016-2.815,4.122-.144,4.137l7.459.045q-.921,3.8-2.06,7.552c-.774,2.549,3.19,3.746,3.967,1.189q1.534-5.05,2.675-10.2A2.1,2.1,0,0,0-3956.826,1290.769Z" transform="translate(-38.054 0)" fill="#124394"/>
  </g>
</svg>
